<?xml version="1.0" encoding="UTF-8"?>
<svg version="1.1" xmlns="http://www.w3.org/2000/svg" width="204" height="192">
<path d="M0 0 C67.32 0 134.64 0 204 0 C204 63.36 204 126.72 204 192 C136.68 192 69.36 192 0 192 C0 128.64 0 65.28 0 0 Z " fill="#E7C078" transform="translate(0,0)"/>
<path d="M0 0 C0.82164642 0.00021149 1.64329285 0.00042297 2.48983765 0.00064087 C14.30778462 0.03101897 25.60312569 0.53814132 37.0390625 3.79833984 C39.0164177 4.36186699 41.00124718 4.85083151 43 5.33203125 C56.18963202 8.74739599 71.74030915 15.41257481 82.0625 24.375 C84.15008245 40.04359638 74.54694124 58.47852778 65.625 70.6875 C62.07756589 75.26308875 58.33783311 79.47083729 54.0625 83.375 C54.7225 85.355 55.3825 87.335 56.0625 89.375 C48.38679499 95.11265325 41.18935752 99.53428689 32.15625 102.890625 C28.68122851 104.55793329 26.70770924 106.60634766 24.0625 109.375 C22.74167983 110.06612683 21.40830704 110.7338872 20.0625 111.375 C19.32515625 112.01695312 18.5878125 112.65890625 17.828125 113.3203125 C11.94667957 118.41634751 6.78584458 120.56612527 -0.94873047 120.39038086 C-8.62601025 119.72005529 -13.5421439 115.65490626 -18.9375 110.375 C-19.81019531 109.53195313 -20.68289062 108.68890625 -21.58203125 107.8203125 C-30.1124845 98.98847611 -36.81346192 88.51421321 -41.9375 77.375 C-41.25403981 80.68479037 -40.02871167 83.42997527 -38.5 86.4375 C-38.06816406 87.29472656 -37.63632812 88.15195313 -37.19140625 89.03515625 C-35.89907882 91.53653082 -35.89907882 91.53653082 -33.9375 94.375 C-51.78215373 87.65993867 -65.69978688 71.20561751 -73.44848633 54.20336914 C-76.94041741 46.05607046 -79.41488361 38.28560952 -79.9375 29.375 C-80.06125 28.05048828 -80.06125 28.05048828 -80.1875 26.69921875 C-79.9375 24.375 -79.9375 24.375 -78.53125 22.85546875 C-67.29230788 15.91500263 -55.65138352 10.05489849 -42.9375 6.375 C-41.79410156 6.02695313 -40.65070312 5.67890625 -39.47265625 5.3203125 C-26.11120545 1.34524462 -13.86237001 -0.03281754 0 0 Z " fill="#F3F6F2" transform="translate(100.9375,72.625)"/>
<path d="M0 0 C31.68 0 63.36 0 96 0 C96 63.36 96 126.72 96 192 C64.98 192 33.96 192 2 192 C4.83880149 189.16119851 7.49219414 186.70176111 10.625 184.25 C11.40101562 183.63640625 12.17703125 183.0228125 12.9765625 182.390625 C15 181 15 181 17 181 C17 181.66 17 182.32 17 183 C32.81421488 177.70088726 46.03031491 170.81622759 58 159 C58.62132812 158.43925781 59.24265625 157.87851563 59.8828125 157.30078125 C76.26086522 142.13455754 83.65686724 118.93345722 85.875 97.3125 C86.67953373 90.56556861 89.46224874 86.86756276 94 82 C94.33 81.34 94.66 80.68 95 80 C93.24970238 80.31082872 91.49977306 80.62373179 89.75 80.9375 C88.77546875 81.11152344 87.8009375 81.28554687 86.796875 81.46484375 C84.50278205 81.90379729 82.25708029 82.40348592 80 83 C80.33773437 82.41734375 80.67546875 81.8346875 81.0234375 81.234375 C84.63436945 74.5969394 86.13872123 68.48155592 87 61 C81.34297503 65.33811184 76.79450616 69.40129059 75.5390625 76.66796875 C75.28367691 79.11483883 75.09890272 81.5422674 75 84 C72.79535466 80.69303199 72.39847646 78.50701868 71.6875 74.625 C67.43496058 54.08163791 56.46113651 36.87071814 39 25 C31.1349715 20.16963135 23.06338374 16.00237548 14 14 C13.22398438 13.79761719 12.44796875 13.59523438 11.6484375 13.38671875 C-7.51605558 9.02575825 -29.7949933 11.76668259 -46.70947266 22.03808594 C-53.85965192 26.6114603 -53.85965192 26.6114603 -60.125 32.27734375 C-62 34 -62 34 -66 34 C-66 34.66 -66 35.32 -66 36 C-67.98 36.495 -67.98 36.495 -70 37 C-70 36.34 -70 35.68 -70 35 C-69.01 34.505 -69.01 34.505 -68 34 C-67.72414062 33.24203125 -67.44828125 32.4840625 -67.1640625 31.703125 C-63.08930444 22.24093515 -48.14301324 14.99918819 -39 11 C-19.60005601 3.97732378 0.3111245 2.34394989 20 9 C20.92554688 9.26554688 21.85109375 9.53109375 22.8046875 9.8046875 C42.70021401 16.00359042 60.62558632 32.03840607 70.296875 50.2109375 C75.35001744 60.05005231 75.35001744 60.05005231 77 65 C77.99 64.01 77.99 64.01 79 63 C78.63528187 48.77599282 66.2999813 34.63259312 56.57495117 25.10668945 C51.80934634 20.62754584 46.74506243 17.13569214 41 14 C40.41234863 13.67016113 39.82469727 13.34032227 39.21923828 13.00048828 C26.78195665 6.07812137 14.27515363 2.01965383 0 1 C0 0.67 0 0.34 0 0 Z " fill="#FCFDFC" transform="translate(108,0)"/>
<path d="M0 0 C0.82164642 0.00021149 1.64329285 0.00042297 2.48983765 0.00064087 C14.30778462 0.03101897 25.60312569 0.53814132 37.0390625 3.79833984 C39.0164177 4.36186699 41.00124718 4.85083151 43 5.33203125 C56.18963202 8.74739599 71.74030915 15.41257481 82.0625 24.375 C84.14107545 39.97599329 74.60200312 58.36982788 65.75 70.5625 C57.7086281 80.82126017 49.12822145 87.71667827 38.0625 94.375 C37.7325 93.715 37.4025 93.055 37.0625 92.375 C38.21406772 89.72074055 39.42377102 87.19011533 40.75 84.625 C41.10255859 83.92117187 41.45511719 83.21734375 41.81835938 82.4921875 C44.82450285 76.578823 48.05804309 71.24113885 52.75 66.5 C64.72779186 53.11173919 69.03211201 37.86757342 71.0625 20.375 C53.23567355 24.56495483 40.16392969 33.73574396 29.75390625 48.9921875 C28.31161286 51.02405579 26.88613136 52.69079 25.0625 54.375 C24.9375 48.625 24.9375 48.625 26.0625 46.375 C22.7625 46.375 19.4625 46.375 16.0625 46.375 C25.75643085 29.59366352 41.26611969 21.30712677 59.0625 15.375 C54.67605276 13.18177638 50.31824923 14.02899784 45.7734375 15.28125 C31.43076882 20.15588249 17.20908801 28.17190909 9.0625 41.375 C8.65 40.7975 8.2375 40.22 7.8125 39.625 C5.17294875 36.23129125 3.19876549 33.75375516 -0.9375 32.375 C0.3309375 31.570625 0.3309375 31.570625 1.625 30.75 C3.97237376 29.19954066 6.00615455 27.54006981 8.0625 25.625 C18.38259203 16.72448395 30.08734762 12.64235072 43.0625 9.375 C35.29859695 6.78703232 28.67428074 8.77113909 21.4375 11.75 C20.56738281 12.09998047 19.69726562 12.44996094 18.80078125 12.81054688 C12.3696932 15.52410612 6.82126826 18.86733226 1.37646484 23.22412109 C-1.80957324 25.75962252 -2.6723568 26.375 -6.9375 26.375 C-9.6875 24.875 -9.6875 24.875 -11.9375 23.375 C-8.66292677 14.99648302 3.3648306 11.02483714 11.0234375 7.59765625 C14.68660384 6.12391452 18.192848 5.13375529 22.0625 4.375 C8.26932411 3.25663439 -1.94364437 8.32712461 -13.16015625 15.703125 C-15.56566832 17.15116884 -17.16852585 18.10932018 -19.9375 18.375 C-23.1875 16.9375 -23.1875 16.9375 -25.9375 15.375 C-24.60369327 11.37357982 -22.8703735 10.87428712 -19.25 8.8125 C-18.21488281 8.21308594 -17.17976563 7.61367187 -16.11328125 6.99609375 C-13.09631165 5.45606622 -10.17547874 4.35076271 -6.9375 3.375 C-14.58492689 2.88686637 -20.76112191 4.74938156 -27.0625 9.125 C-30.08534823 11.12823672 -30.73162833 11.38209902 -34.5625 11.25 C-35.67625 10.96125 -36.79 10.6725 -37.9375 10.375 C-42.68226823 9.30984795 -45.40584711 9.54075954 -49.9375 11.375 C-48.9475 11.808125 -47.9575 12.24125 -46.9375 12.6875 C-46.380625 12.93113281 -45.82375 13.17476562 -45.25 13.42578125 C-43.25989101 14.2426672 -41.23566962 14.97554119 -39.20703125 15.69140625 C-34.73971583 17.36083675 -30.71651122 19.56524943 -26.625 22 C-25.89023438 22.43586426 -25.15546875 22.87172852 -24.3984375 23.32080078 C-8.51811101 32.94007911 -8.51811101 32.94007911 -6.03515625 38.3359375 C-5.84076451 42.39483693 -8.20535435 45.80573017 -9.9375 49.375 C-13.2375 48.715 -16.5375 48.055 -19.9375 47.375 C-20.2675 49.685 -20.5975 51.995 -20.9375 54.375 C-21.2675 54.375 -21.5975 54.375 -21.9375 54.375 C-22.123125 53.529375 -22.30875 52.68375 -22.5 51.8125 C-27.56778224 39.6938903 -44.71210977 31.11440935 -55.9375 25.375 C-58.88539174 24.1761664 -61.83312653 23.09603848 -64.85546875 22.1015625 C-66.9375 21.375 -66.9375 21.375 -67.9375 20.375 C-68.42641336 38.77036516 -60.59363323 55.04746249 -48.63671875 68.65234375 C-41.15022675 76.20384147 -32.85263919 81.61360828 -22.9375 85.375 C-21.56658203 85.9628125 -21.56658203 85.9628125 -20.16796875 86.5625 C-4.32801688 92.54140713 13.87350429 90.86738582 29.20605469 84.24804688 C32.72330337 82.59395938 36.0149816 80.67752588 39.21484375 78.4765625 C41.0625 77.375 41.0625 77.375 44.0625 77.375 C36.20096628 92.82782722 25.38462493 111.78095925 9.0625 119.375 C2.14731452 120.83268166 -3.85974725 120.89407797 -10.27734375 117.7265625 C-13.43508583 115.47509646 -16.16643973 113.08676512 -18.9375 110.375 C-19.81019531 109.53195313 -20.68289062 108.68890625 -21.58203125 107.8203125 C-30.1124845 98.98847611 -36.81346192 88.51421321 -41.9375 77.375 C-41.25403981 80.68479037 -40.02871167 83.42997527 -38.5 86.4375 C-38.06816406 87.29472656 -37.63632812 88.15195313 -37.19140625 89.03515625 C-35.89907882 91.53653082 -35.89907882 91.53653082 -33.9375 94.375 C-51.78215373 87.65993867 -65.69978688 71.20561751 -73.44848633 54.20336914 C-76.94041741 46.05607046 -79.41488361 38.28560952 -79.9375 29.375 C-80.06125 28.05048828 -80.06125 28.05048828 -80.1875 26.69921875 C-79.9375 24.375 -79.9375 24.375 -78.53125 22.85546875 C-67.29230788 15.91500263 -55.65138352 10.05489849 -42.9375 6.375 C-41.79410156 6.02695313 -40.65070312 5.67890625 -39.47265625 5.3203125 C-26.11120545 1.34524462 -13.86237001 -0.03281754 0 0 Z " fill="#134E20" transform="translate(100.9375,72.625)"/>
<path d="M0 0 C31.68 0 63.36 0 96 0 C96 0.33 96 0.66 96 1 C95.04480469 1.10957031 94.08960937 1.21914063 93.10546875 1.33203125 C73.50676563 3.73546144 55.70840873 10.26315588 41 24 C40.22527344 24.70769531 39.45054688 25.41539063 38.65234375 26.14453125 C30.91111616 33.52389845 25.46799401 41.75085293 20.5625 51.1875 C20.03064087 52.18535522 20.03064087 52.18535522 19.48803711 53.20336914 C17.27058153 57.63002878 16.62643978 60.9471065 17 66 C14.36 64.02 11.72 62.04 9 60 C9.89920753 66.53776769 10.73331849 72.17678514 14 78 C14.6875 80.875 14.6875 80.875 15 83 C14.360625 82.690625 13.72125 82.38125 13.0625 82.0625 C9.07950896 80.68064597 5.18349151 80.3463457 1 80 C3.7318884 84.70515317 3.7318884 84.70515317 8.25 87.625 C11 90 11 90 11.3125 92.45703125 C11.26907036 94.52808209 11.19664626 96.59864597 11.1015625 98.66796875 C10.41083426 121.32916832 23.61837333 142.93316139 38.06640625 159.34765625 C42.84673296 164.35975638 48.22622965 168.20979914 54 172 C54.95132813 172.67869141 54.95132813 172.67869141 55.921875 173.37109375 C62.22169574 177.69212464 71.2881193 182 79 182 C83.06031924 182 85.11413302 184.05193011 88.1875 186.4375 C88.74630859 186.85837891 89.30511719 187.27925781 89.88085938 187.71289062 C91.27733299 188.77857562 92.64174155 189.88601749 94 191 C94 191.33 94 191.66 94 192 C62.98 192 31.96 192 0 192 C0 128.64 0 65.28 0 0 Z " fill="#FDFDFD" transform="translate(0,0)"/>
<path d="M0 0 C0.80695313 0.19464844 1.61390625 0.38929687 2.4453125 0.58984375 C18.27335881 4.7825394 32.30311617 16.15909465 41 30 C46.27319051 39.38779502 50.4584211 47.99789349 50 59 C46.0275704 57.72272913 42.20386801 56.28101178 38.375 54.625 C28.74592761 50.5900735 19.34142466 47.54714227 9 46 C9.15984375 45.26136719 9.3196875 44.52273437 9.484375 43.76171875 C11.01075533 35.58633321 10.21744133 27.16193858 5.74609375 19.98828125 C1.52857256 14.69052302 -4.23453508 10.24160218 -11 9 C-20.84539185 8.20503047 -28.12492261 9.91471293 -36 16 C-41.84871753 22.02073863 -44.24774077 28.56731598 -44.3125 36.875 C-44.23632376 40.26684733 -44.07458621 42.77624136 -43 46 C-43.75539062 46.12375 -44.51078125 46.2475 -45.2890625 46.375 C-58.71874787 48.8911003 -71.35956917 53.91380156 -84 59 C-82.71369882 43.04986542 -76.16183992 26.82603128 -64 16 C-45.82871416 0.96590925 -23.3717794 -6.25608236 0 0 Z " fill="#F1B420" transform="translate(119,25)"/>
<path d="M0 0 C1.07636719 -0.00773437 2.15273437 -0.01546875 3.26171875 -0.0234375 C21.81401302 0.02175688 38.11828111 7.45648854 51.5 20.25 C62.40102279 32.15771355 71.72369704 46.92262154 71.75 63.625 C71.6675 64.82125 71.585 66.0175 71.5 67.25 C72.82 67.58 74.14 67.91 75.5 68.25 C75.83 69.9 76.16 71.55 76.5 73.25 C73.33110432 72.59049051 70.77862723 71.46670417 67.921875 69.95703125 C49.89544249 60.70882757 30.98432027 54.2904196 10.53125 53.9765625 C9.7816098 53.96412506 9.0319696 53.95168762 8.25961304 53.93887329 C-16.60759611 53.60619838 -37.95492648 56.67389889 -60.875 66.8125 C-61.54660156 67.10318359 -62.21820313 67.39386719 -62.91015625 67.69335938 C-65.82189164 68.97189151 -68.57785064 70.29786615 -71.2890625 71.96484375 C-73.5 73.25 -73.5 73.25 -76.5 73.25 C-76.5 71.93 -76.5 70.61 -76.5 69.25 C-73.53 68.26 -73.53 68.26 -70.5 67.25 C-70.62375 65.455625 -70.62375 65.455625 -70.75 63.625 C-70.73357134 53.1928016 -66.54723593 43.20969062 -61.5 34.25 C-60.943125 33.21875 -60.38625 32.1875 -59.8125 31.125 C-59.379375 30.50625 -58.94625 29.8875 -58.5 29.25 C-57.84 29.25 -57.18 29.25 -56.5 29.25 C-56.314375 28.569375 -56.12875 27.88875 -55.9375 27.1875 C-49.90990836 14.87024752 -33.92271418 6.71687742 -21.5 2.25 C-14.38683401 0.04021761 -7.39970544 -0.05317154 0 0 Z M-52.3125 27.4375 C-60.46183731 38.04199156 -66.5 50.66965256 -66.5 64.25 C-65.7898877 63.96318359 -65.07977539 63.67636719 -64.34814453 63.38085938 C-59.39080887 61.412543 -54.38275858 59.5853963 -49.375 57.75 C-48.29734375 57.34652344 -47.2196875 56.94304687 -46.109375 56.52734375 C-39.29392056 54.03929231 -32.6850166 52.27720057 -25.5 51.25 C-25.83 50.26 -26.16 49.27 -26.5 48.25 C-27.6010788 38.56329412 -25.96572717 31.34876012 -20.5 23.25 C-15.79953821 17.8384427 -9.04834834 14.61219619 -1.94921875 14.046875 C7.71380477 13.88286329 14.31187165 16.85881632 21.5 23.25 C26.53253311 29.11525441 27.8732969 36.58606286 27.703125 44.14453125 C27.4702746 46.55811519 27.01257873 48.88139022 26.5 51.25 C27.2528125 51.40855469 28.005625 51.56710938 28.78125 51.73046875 C40.79608144 54.36964896 52.84042496 57.36125104 63.6796875 63.33203125 C65.45785018 64.40009223 65.45785018 64.40009223 67.5 64.25 C68.72841733 51.04451374 61.33793196 37.59740922 53.17285156 27.62988281 C44.77357134 18.13899938 35.39641384 11.45679108 23.5 7.25 C22.79875 6.96253906 22.0975 6.67507812 21.375 6.37890625 C16.79804068 4.51057715 12.44738743 3.52000188 7.5 3.25 C6.41847656 3.18554688 5.33695312 3.12109375 4.22265625 3.0546875 C-17.47813437 2.37155663 -37.92810138 10.85887108 -52.3125 27.4375 Z " fill="#F6F5ED" transform="translate(101.5,19.75)"/>
<path d="M0 0 C-2.9151006 1.9434004 -5.56492622 3.09231048 -8.8125 4.375 C-16.56022879 7.23250969 -16.56022879 7.23250969 -22 13 C-21.2575 13.144375 -20.515 13.28875 -19.75 13.4375 C-17 14 -17 14 -15.08984375 14.69921875 C-12.15734857 15.1212788 -11.16190098 14.11244408 -8.8125 12.375 C2.58116216 4.33789952 11.9002754 0.35585015 26 1 C26.495 1.99 26.495 1.99 27 3 C25.99646484 3.16822266 25.99646484 3.16822266 24.97265625 3.33984375 C18.08290743 4.75478545 12.22963723 7.15151696 6.0625 10.4375 C5.3413501 10.82091553 4.6202002 11.20433105 3.87719727 11.59936523 C-3.09659962 15.19459781 -3.09659962 15.19459781 -8 21 C-4.62902617 22.49821059 -2.79557881 23 1 23 C3.08238404 21.55652924 5.02657755 20.07908087 7 18.5 C12.76527889 14.1396656 18.67453124 11.07007743 25.375 8.375 C26.20644531 8.03275391 27.03789063 7.69050781 27.89453125 7.33789062 C34.81120769 4.67635353 40.70717033 4.17679258 48 6 C47.67 6.66 47.34 7.32 47 8 C44.37925875 8.8238321 41.77982707 9.55530523 39.125 10.25 C26.67951823 13.72237252 16.05404988 19.64953778 7 29 C6.505 29.495 6.505 29.495 6 30 C6.78375 30.78375 7.5675 31.5675 8.375 32.375 C9.91666667 33.91666667 11.45833333 35.45833333 13 37 C13.44988281 36.443125 13.89976563 35.88625 14.36328125 35.3125 C24.31282676 23.50863038 39.62157398 12.72842081 55.328125 10.69921875 C60.61986301 10.66695205 60.61986301 10.66695205 62.734375 12.51953125 C63.15203125 13.00808594 63.5696875 13.49664062 64 14 C63.27296875 14.21914062 62.5459375 14.43828125 61.796875 14.6640625 C45.06196592 19.94199536 30.84146851 28.09720482 21 43 C23.97 43.33 26.94 43.66 30 44 C29.25977827 66.46190071 29.25977827 66.46190071 19.609375 76.6484375 C15.60239416 80.25951903 11.21371634 83.45168424 6 85 C3.51171875 84.30859375 3.51171875 84.30859375 1 83 C0.11441406 82.58363281 -0.77117187 82.16726562 -1.68359375 81.73828125 C-9.22663913 77.83301662 -13.64871298 74.07556418 -17.875 66.75 C-19.37016072 61.76613093 -19.25204431 57.16224091 -19 52 C-18.34 52 -17.68 52 -17 52 C-17 49.36 -17 46.72 -17 44 C-13.37 44.99 -9.74 45.98 -6 47 C-5.484375 45.5975 -4.96875 44.195 -4.4375 42.75 C-4.14746094 41.96109375 -3.85742188 41.1721875 -3.55859375 40.359375 C-2.90750931 37.60934003 -2.7777403 36.55382718 -4 34 C-5.94686685 32.22051085 -7.82234639 30.67557694 -9.9375 29.125 C-10.52362061 28.68591309 -11.10974121 28.24682617 -11.71362305 27.79443359 C-16.61086973 24.17597537 -21.65725346 20.92601024 -27 18 C-27.65097656 17.63390625 -28.30195312 17.2678125 -28.97265625 16.890625 C-34.70305985 13.83127195 -40.81721228 11.93727348 -47 10 C-46 8 -46 8 -43.3125 6.8125 C-38.67363904 5.67466618 -35.27995599 6.63078193 -30.75 7.9375 C-25.81819913 8.01969668 -23.45708334 6.13328753 -19.40625 3.50390625 C-13.22992367 -0.3562977 -7.0302031 -0.254615 0 0 Z " fill="#1B5520" transform="translate(97,75)"/>
<path d="M0 0 C10.56467173 9.62343116 20.89787876 21.54585319 24.51660156 35.68798828 C24.32128906 38.40673828 24.32128906 38.40673828 23.51660156 40.68798828 C22.52660156 41.34798828 21.53660156 42.00798828 20.51660156 42.68798828 C20.20207031 41.83076172 19.88753906 40.97353516 19.56347656 40.09033203 C12.72198032 21.81199719 2.02355483 7.27692671 -14.48339844 -3.31201172 C-16.04574219 -4.32328125 -16.04574219 -4.32328125 -17.63964844 -5.35498047 C-26.52375296 -10.78528747 -35.39352566 -13.83993984 -45.48339844 -16.31201172 C-46.28261719 -16.51310547 -47.08183594 -16.71419922 -47.90527344 -16.92138672 C-71.46683631 -20.49132049 -94.10746617 -13.57454684 -113.48339844 -0.31201172 C-120.03807463 4.5212231 -120.03807463 4.5212231 -123.48339844 11.68798828 C-124.14339844 11.68798828 -124.80339844 11.68798828 -125.48339844 11.68798828 C-125.48339844 12.34798828 -125.48339844 13.00798828 -125.48339844 13.68798828 C-123.50339844 13.19298828 -123.50339844 13.19298828 -121.48339844 12.68798828 C-121.48339844 12.02798828 -121.48339844 11.36798828 -121.48339844 10.68798828 C-120.49339844 11.01798828 -119.50339844 11.34798828 -118.48339844 11.68798828 C-119.06347656 12.29384766 -119.64355469 12.89970703 -120.24121094 13.52392578 C-130.69045546 24.73186133 -139.84928738 39.65854593 -139.51074219 55.60205078 C-139.49849609 56.52759766 -139.48625 57.45314453 -139.47363281 58.40673828 C-139.4383335 60.35212271 -139.39924046 62.29744182 -139.35644531 64.24267578 C-139.34548828 65.16564453 -139.33453125 66.08861328 -139.32324219 67.03955078 C-139.30640381 67.88340332 -139.28956543 68.72725586 -139.2722168 69.59667969 C-139.48339844 71.68798828 -139.48339844 71.68798828 -141.48339844 73.68798828 C-142.36404883 93.09165196 -132.55721357 111.82413936 -120.03076172 126.03613281 C-113.56884856 132.93441373 -106.27671995 139.06720883 -97.48339844 142.68798828 C-98.22589844 141.71861328 -98.96839844 140.74923828 -99.73339844 139.75048828 C-102.60560762 135.72939543 -104.9993995 131.41943944 -106.48339844 126.68798828 C-106.15339844 126.02798828 -105.82339844 125.36798828 -105.48339844 124.68798828 C-102.64419015 128.02149611 -100.68827729 131.13087965 -98.92089844 135.12548828 C-96.07143625 141.04416552 -92.45597625 145.87099062 -88.26635742 150.87915039 C-85.66576975 154.01691013 -83.73596465 156.79192478 -82.48339844 160.68798828 C-104.94896049 156.1470768 -123.99078923 141.7555402 -136.81884766 122.94848633 C-147.30533477 107.09564386 -155.16977527 88.02249476 -153.48339844 68.68798828 C-152.98839844 67.69798828 -152.98839844 67.69798828 -152.48339844 66.68798828 C-153.20527344 66.48173828 -153.92714844 66.27548828 -154.67089844 66.06298828 C-158.45558228 64.2126984 -160.00598496 62.0855839 -162.48339844 58.68798828 C-162.48339844 58.02798828 -162.48339844 57.36798828 -162.48339844 56.68798828 C-161.06716628 56.63351781 -159.65031653 56.59498321 -158.23339844 56.56298828 C-157.44449219 56.53978516 -156.65558594 56.51658203 -155.84277344 56.49267578 C-153.27607903 56.70515048 -151.69179174 57.40144723 -149.48339844 58.68798828 C-150.12496737 55.68274435 -151.15713595 53.23321447 -152.54589844 50.50048828 C-154.7634899 45.68102959 -154.81710969 41.94394047 -154.48339844 36.68798828 C-151.62280934 38.04735914 -149.62412145 39.33319297 -147.48339844 41.68798828 C-147.55558594 40.85654297 -147.62777344 40.02509766 -147.70214844 39.16845703 C-147.43317883 34.8889585 -145.93729143 31.73064763 -143.98339844 28.00048828 C-143.61956055 27.29569336 -143.25572266 26.59089844 -142.88085938 25.86474609 C-134.10001846 9.25009198 -121.73624116 -3.11691029 -105.48339844 -12.31201172 C-104.61279785 -12.8130542 -104.61279785 -12.8130542 -103.72460938 -13.32421875 C-71.17207434 -31.78156064 -27.53432539 -24.35310478 0 0 Z " fill="#EDF0ED" transform="translate(163.4833984375,23.31201171875)"/>
<path d="M0 0 C0.80416351 0.0052066 1.60832703 0.01041321 2.43685913 0.01577759 C14.09833784 0.10408599 25.32241332 0.7078389 36.6015625 3.92333984 C38.5789177 4.48686699 40.56374718 4.97583151 42.5625 5.45703125 C55.75213202 8.87239599 71.30280915 15.53757481 81.625 24.5 C83.70357545 40.10099329 74.16450312 58.49482788 65.3125 70.6875 C57.2711281 80.94626017 48.69072145 87.84167827 37.625 94.5 C37.295 93.84 36.965 93.18 36.625 92.5 C37.77656772 89.84574055 38.98627102 87.31511533 40.3125 84.75 C40.66505859 84.04617187 41.01761719 83.34234375 41.38085938 82.6171875 C44.38700285 76.703823 47.62054309 71.36613885 52.3125 66.625 C64.29029186 53.23673919 68.59461201 37.99257342 70.625 20.5 C52.79817355 24.68995483 39.72642969 33.86074396 29.31640625 49.1171875 C27.87411286 51.14905579 26.44863136 52.81579 24.625 54.5 C24.5 48.75 24.5 48.75 25.625 46.5 C22.325 46.5 19.025 46.5 15.625 46.5 C25.31893085 29.71866352 40.82861969 21.43212677 58.625 15.5 C54.23855276 13.30677638 49.88074923 14.15399784 45.3359375 15.40625 C30.99326882 20.28088249 16.77158801 28.29690909 8.625 41.5 C8.2125 40.9225 7.8 40.345 7.375 39.75 C4.73544875 36.35629125 2.76126549 33.87875516 -1.375 32.5 C-0.1065625 31.695625 -0.1065625 31.695625 1.1875 30.875 C3.53487376 29.32454066 5.56865455 27.66506981 7.625 25.75 C17.94509203 16.84948395 29.64984762 12.76735072 42.625 9.5 C34.86109695 6.91203232 28.23678074 8.89613909 21 11.875 C20.12988281 12.22498047 19.25976562 12.57496094 18.36328125 12.93554688 C11.9321932 15.64910612 6.38376826 18.99233226 0.93896484 23.34912109 C-2.24707324 25.88462252 -3.1098568 26.5 -7.375 26.5 C-10.125 25 -10.125 25 -12.375 23.5 C-9.10042677 15.12148302 2.9273306 11.14983714 10.5859375 7.72265625 C14.24910384 6.24891452 17.755348 5.25875529 21.625 4.5 C7.83182411 3.38163439 -2.38114437 8.45212461 -13.59765625 15.828125 C-16.00316832 17.27616884 -17.60602585 18.23432018 -20.375 18.5 C-23.625 17.0625 -23.625 17.0625 -26.375 15.5 C-25.04119327 11.49857982 -23.3078735 10.99928712 -19.6875 8.9375 C-18.65238281 8.33808594 -17.61726563 7.73867187 -16.55078125 7.12109375 C-13.53381165 5.58106622 -10.61297874 4.47576271 -7.375 3.5 C-13.26006748 3.31633079 -18.61605467 4.20406318 -24.32617188 5.43359375 C-29.09907116 6.40576528 -33.50186396 6.63067627 -38.375 6.5 C-30.31592903 -1.55907097 -10.68527093 -0.14415323 0 0 Z " fill="#134D1E" transform="translate(101.375,72.5)"/>
<path d="M0 0 C0.51480708 6.94989552 -1.21029141 11.69234563 -4 18 C-4.495 19.485 -4.495 19.485 -5 21 C-4.01 20.505 -4.01 20.505 -3 20 C0.86061033 18.71312989 3.94150283 18.86242382 8 19 C6.93872528 22.28030368 5.88602258 24.12347554 3.515625 26.69140625 C0.64193836 30.07685955 -0.02630176 33.48730128 -0.5625 37.8125 C-0.79599771 39.32866526 -1.03308142 40.84428186 -1.2734375 42.359375 C-1.39170898 43.12958984 -1.50998047 43.89980469 -1.63183594 44.69335938 C-3.70369487 57.67407765 -7.55385375 68.55330366 -14 80 C-14.51046875 80.96292969 -15.0209375 81.92585938 -15.546875 82.91796875 C-25.79774204 100.80414655 -44.60427851 115.09497689 -64.3828125 120.671875 C-66.2458997 121.15225288 -68.12179559 121.58262124 -70 122 C-66.67693389 115.02156116 -60.74605323 113.12725332 -54 110 C-48.91656763 107.3745746 -44.43828994 104.63132813 -40 101 C-39.34 101 -38.68 101 -38 101 C-38.99 99.02 -39.98 97.04 -41 95 C-40.46632812 94.52433594 -39.93265625 94.04867187 -39.3828125 93.55859375 C-24.90409149 79.9566119 -14.31687156 60.70460658 -12.82421875 40.63671875 C-12.81492022 39.09006352 -12.89235354 37.54293263 -13 36 C-13.99 35.505 -13.99 35.505 -15 35 C-14.67 30.05 -14.34 25.1 -14 20 C-13.67 20 -13.34 20 -13 20 C-12.92523438 19.443125 -12.85046875 18.88625 -12.7734375 18.3125 C-11.78425186 12.57134411 -7.16559706 0 0 0 Z " fill="#ECF0EC" transform="translate(195,61)"/>
<path d="M0 0 C4.63146914 3.63962752 8.054508 7.78852399 9.9375 13.4375 C10.03235782 15.6024902 10.06738077 17.77043823 10.0625 19.9375 C10.06636719 21.65453125 10.06636719 21.65453125 10.0703125 23.40625 C9.9375 26.4375 9.9375 26.4375 8.9375 29.4375 C7.91785156 29.27507812 6.89820313 29.11265625 5.84765625 28.9453125 C-0.61953473 28.13958279 -7.11863233 28.29291234 -13.625 28.3125 C-14.91341797 28.30863281 -16.20183594 28.30476563 -17.52929688 28.30078125 C-19.40391602 28.30271484 -19.40391602 28.30271484 -21.31640625 28.3046875 C-23.00745483 28.30637939 -23.00745483 28.30637939 -24.73266602 28.30810547 C-28.23333938 28.44413867 -31.60504633 28.88525068 -35.0625 29.4375 C-36.9667505 23.72474849 -37.23108637 16.77397791 -35.2265625 11.05078125 C-32.17881928 5.8450722 -27.01657125 -0.12619207 -21.234375 -2.2265625 C-13.96359727 -3.3511792 -6.42039599 -4.06408904 0 0 Z " fill="#F3C044" transform="translate(115.0625,40.5625)"/>
<path d="M0 0 C10.56467173 9.62343116 20.89787876 21.54585319 24.51660156 35.68798828 C24.32128906 38.40673828 24.32128906 38.40673828 23.51660156 40.68798828 C22.52660156 41.34798828 21.53660156 42.00798828 20.51660156 42.68798828 C20.20207031 41.83076172 19.88753906 40.97353516 19.56347656 40.09033203 C12.72198032 21.81199719 2.02355483 7.27692671 -14.48339844 -3.31201172 C-16.04574219 -4.32328125 -16.04574219 -4.32328125 -17.63964844 -5.35498047 C-26.52375296 -10.78528747 -35.39352566 -13.83993984 -45.48339844 -16.31201172 C-46.28261719 -16.51310547 -47.08183594 -16.71419922 -47.90527344 -16.92138672 C-70.93722313 -20.41107607 -94.80286235 -14.00483917 -113.48339844 -0.31201172 C-126.2686395 9.69062427 -134.59310709 21.7508233 -141.07324219 36.57080078 C-142.48339844 39.68798828 -142.48339844 39.68798828 -144.48339844 42.68798828 C-146.04589844 41.56298828 -146.04589844 41.56298828 -147.48339844 39.68798828 C-146.19164635 23.74869025 -132.49801551 8.35232563 -121.13378906 -1.91601562 C-116.31512767 -5.99191886 -110.96251792 -9.21218111 -105.48339844 -12.31201172 C-104.61279785 -12.8130542 -104.61279785 -12.8130542 -103.72460938 -13.32421875 C-71.17207434 -31.78156064 -27.53432539 -24.35310478 0 0 Z " fill="#154F20" transform="translate(163.4833984375,23.31201171875)"/>
<path d="M0 0 C0.92554688 0.26554688 1.85109375 0.53109375 2.8046875 0.8046875 C21.66126445 6.6798821 39.65332864 21.86962304 49.12646484 39.04199219 C50.95441442 42.53435865 52.68591324 46.0657641 54.37109375 49.62890625 C55.9153107 53.02187031 55.9153107 53.02187031 58 56 C58.99 56.33 59.98 56.66 61 57 C60.65066406 57.46148437 60.30132812 57.92296875 59.94140625 58.3984375 C56.13078673 63.86068531 55.14905394 68.38742532 55 75 C52.79535466 71.69303199 52.39847646 69.50701868 51.6875 65.625 C47.43496058 45.08163791 36.46113651 27.87071814 19 16 C11.1349715 11.16963135 3.06338374 7.00237548 -6 5 C-6.77601562 4.79761719 -7.55203125 4.59523438 -8.3515625 4.38671875 C-27.51605558 0.02575825 -49.7949933 2.76668259 -66.70947266 13.03808594 C-73.85965192 17.6114603 -73.85965192 17.6114603 -80.125 23.27734375 C-82 25 -82 25 -86 25 C-86 25.66 -86 26.32 -86 27 C-87.32 27.33 -88.64 27.66 -90 28 C-90 27.34 -90 26.68 -90 26 C-89.34 25.67 -88.68 25.34 -88 25 C-87.72414062 24.24203125 -87.44828125 23.4840625 -87.1640625 22.703125 C-83.08930444 13.24093515 -68.14301324 5.99918819 -59 2 C-39.60005601 -5.02267622 -19.6888755 -6.65605011 0 0 Z " fill="#F5F6F2" transform="translate(128,9)"/>
<path d="M0 0 C0.69528809 0.34337402 1.39057617 0.68674805 2.10693359 1.04052734 C13.22368954 6.61459672 24.15054526 13.15054526 33 22 C32.62793814 26.34072171 30.77048085 30.07415115 29 34 C25.7 33.34 22.4 32.68 19 32 C18.67 34.31 18.34 36.62 18 39 C17.67 39 17.34 39 17 39 C16.814375 38.154375 16.62875 37.30875 16.4375 36.4375 C11.18929657 23.88744833 -8.14389164 13.65936996 -20.1953125 8.6796875 C-22.78340854 7.73314598 -25.37327299 6.83248632 -28 6 C-28 5.01 -28 4.02 -28 3 C-17.69265533 -3.10171994 -11.3456519 -5.69175641 0 0 Z " fill="#52A330" transform="translate(62,88)"/>
<path d="M0 0 C-2.9151006 1.9434004 -5.56492622 3.09231048 -8.8125 4.375 C-16.56022879 7.23250969 -16.56022879 7.23250969 -22 13 C-21.2575 13.144375 -20.515 13.28875 -19.75 13.4375 C-17 14 -17 14 -15.08984375 14.69921875 C-12.15734857 15.1212788 -11.16190098 14.11244408 -8.8125 12.375 C2.58116216 4.33789952 11.9002754 0.35585015 26 1 C26.495 1.99 26.495 1.99 27 3 C25.99646484 3.16822266 25.99646484 3.16822266 24.97265625 3.33984375 C18.08290743 4.75478545 12.22963723 7.15151696 6.0625 10.4375 C5.3413501 10.82091553 4.6202002 11.20433105 3.87719727 11.59936523 C-3.09659962 15.19459781 -3.09659962 15.19459781 -8 21 C-4.62902617 22.49821059 -2.79557881 23 1 23 C3.08238404 21.55652924 5.02657755 20.07908087 7 18.5 C12.76527889 14.1396656 18.67453124 11.07007743 25.375 8.375 C26.20644531 8.03275391 27.03789063 7.69050781 27.89453125 7.33789062 C34.81120769 4.67635353 40.70717033 4.17679258 48 6 C47.67 6.66 47.34 7.32 47 8 C44.37925875 8.8238321 41.77982707 9.55530523 39.125 10.25 C27.41392872 13.51746709 17.0423711 18.87153635 8.40234375 27.6171875 C7 29 7 29 4.5625 30.4375 C1.95373206 32.02821216 0.0743035 33.77204439 -2 36 C-2.41507813 35.59910156 -2.83015625 35.19820312 -3.2578125 34.78515625 C-15.5639243 23.43160959 -31.00972656 14.74406018 -47 10 C-46 8 -46 8 -43.3125 6.8125 C-38.67363904 5.67466618 -35.27995599 6.63078193 -30.75 7.9375 C-25.81819913 8.01969668 -23.45708334 6.13328753 -19.40625 3.50390625 C-13.22992367 -0.3562977 -7.0302031 -0.254615 0 0 Z " fill="#F3F7F1" transform="translate(97,75)"/>
<path d="M0 0 C2.26901586 6.80704759 -2.05961751 16.88631662 -5.04541016 23.21630859 C-13.67019814 39.29976851 -25.33242541 52.44590774 -43 58 C-37.92680562 40.80151125 -32.47634419 25.51374817 -19 13 C-18.35417969 12.37222656 -17.70835937 11.74445313 -17.04296875 11.09765625 C-11.80749684 6.17392873 -6.58603658 2.85990732 0 0 Z " fill="#52A330" transform="translate(169,99)"/>
<path d="M0 0 C1.69291197 7.61810388 2.82365627 15.96964021 -1.5 22.8125 C-6.22342643 28.93299622 -13.14862694 36.26047423 -21 38 C-23.3984375 37.2578125 -23.3984375 37.2578125 -26 36 C-27.32837891 35.37544922 -27.32837891 35.37544922 -28.68359375 34.73828125 C-36.22663913 30.83301662 -40.64871298 27.07556418 -44.875 19.75 C-46.37016072 14.76613093 -46.25204431 10.16224091 -46 5 C-45.360625 5.66 -44.72125 6.32 -44.0625 7 C-41.63039294 9.43903614 -39.08364799 11.72259409 -36.5 14 C-27.28014184 22.15957447 -27.28014184 22.15957447 -26 26 C-24.35 26 -22.7 26 -21 26 C-21.04640625 25.3709375 -21.0928125 24.741875 -21.140625 24.09375 C-21.40724979 17.77093352 -20.82293024 13.15403408 -17 8 C-11.65547489 2.24264101 -7.94731042 0 0 0 Z " fill="#17521F" transform="translate(124,122)"/>
<path d="M0 0 C19.48378951 6.94826317 38.99321104 27.89451608 48 46 C48.71875 49.390625 48.71875 49.390625 49 52 C34.04013078 49.75882109 21.02588493 38.36986151 12.0703125 26.89453125 C6.51712284 19.13054344 0 9.92079138 0 0 Z " fill="#458D2C" transform="translate(36,107)"/>
<path d="M0 0 C14.37358172 5.08031768 27.32295698 12.26784146 38.9375 22.234375 C40.91416787 24.00336428 40.91416787 24.00336428 42.9375 25.265625 C44.98934797 26.76651379 45.91602301 27.67595334 47 30 C47.26556498 33.41645762 47.32542738 36.67272644 47.13134766 40.08789062 C46.87793558 44.54879861 47.31660557 47.85625986 49 52 C48.01 52.33 47.02 52.66 46 53 C45.67128906 52.53851563 45.34257813 52.07703125 45.00390625 51.6015625 C36.06488968 39.34372406 25.66733905 28.96665401 13.125 20.4375 C12.48224121 19.99535156 11.83948242 19.55320312 11.17724609 19.09765625 C7.75434596 16.83672406 6.21013376 16 2 16 C0.13216954 10.51324804 -0.2358396 5.77807024 0 0 Z " fill="#FAFCF9" transform="translate(32,92)"/>
<path d="M0 0 C4.37696262 3.68144527 4.43596133 8.56707579 5 14 C5.14751077 18.67276051 5.12279429 23.32699499 5 28 C5.96421875 27.55527344 6.9284375 27.11054687 7.921875 26.65234375 C9.19764511 26.08012333 10.47370202 25.50854205 11.75 24.9375 C12.38421875 24.64294922 13.0184375 24.34839844 13.671875 24.04492188 C16.25767815 22.90016527 18.43522888 21.99228981 21.2890625 22.03125 C25.56699511 24.45345842 27.22229882 30.75862532 28.76171875 35.1953125 C29.96838927 39.55986546 30.18648397 43.52438472 30 48 C26.0275704 46.72272913 22.20386801 45.28101178 18.375 43.625 C12.35042931 41.08078907 6.2307372 38.97748574 0 37 C0 34.03 0 31.06 0 28 C-1.32 27.34 -2.64 26.68 -4 26 C-4.50740908 16.47198497 -3.63080055 8.85007633 0 0 Z " fill="#C16D1C" transform="translate(139,36)"/>
<path d="M0 0 C-1.32103998 1.0161846 -2.65824027 2.01133494 -4 3 C-5.3921875 4.11375 -5.3921875 4.11375 -6.8125 5.25 C-11.52776082 7.83877064 -14.78940224 6.54419444 -19.80859375 5.30859375 C-23.70327309 4.93199685 -25.95945142 5.76964474 -29.5625 7.25 C-30.65691406 7.68828125 -31.75132813 8.1265625 -32.87890625 8.578125 C-35.73740401 9.88036929 -38.31195707 11.38627523 -41 13 C-43.31691454 13.72166191 -45.64848923 14.40059529 -48 15 C-46.10380956 30.28106412 -42.4989216 41.70034308 -35 55 C-34.67 55.66 -34.34 56.32 -34 57 C-40.625 57.25 -40.625 57.25 -44 55 C-47.11785113 55.64644661 -47.11785113 55.64644661 -48 58 C-54.7085997 45.58909056 -58.53646681 34.16093907 -59 20 C-46.55594375 10.87435875 -28.7370077 0.50236839 -12.875 1 C-8.42123692 1 -4.52010203 -0.10044671 0 0 Z " fill="#124D1E" transform="translate(80,77)"/>
<path d="M0 0 C2.475 0.495 2.475 0.495 5 1 C5.12955078 2.22009766 5.12955078 2.22009766 5.26171875 3.46484375 C7.75298645 23.78353169 14.31415599 42.49534012 28 58 C28.78375 59.03125 29.5675 60.0625 30.375 61.125 C39.14564536 70.73094492 50.10669697 76.72242504 61.73046875 82.15625 C65.67355014 84.37982756 68.94407302 86.88814605 71 91 C48.53443794 86.45908852 29.49260921 72.06755192 16.66455078 53.26049805 C6.08457146 37.26631966 -0.65651705 19.36725285 0 0 Z " fill="#195123" transform="translate(10,93)"/>
<path d="M0 0 C5.21584164 6.64483936 5.2389623 12.88519852 5.36328125 21.109375 C5 24 5 24 3.54296875 25.390625 C0.96028339 28.08446391 1.29783622 31.36639811 1 35 C0.26885986 35.26216309 -0.46228027 35.52432617 -1.21557617 35.79443359 C-4.53988775 36.98701883 -7.86369807 38.18099512 -11.1875 39.375 C-12.33798828 39.7875 -13.48847656 40.2 -14.67382812 40.625 C-15.78564453 41.02460937 -16.89746094 41.42421875 -18.04296875 41.8359375 C-19.06414795 42.20251465 -20.08532715 42.5690918 -21.13745117 42.94677734 C-23.77891299 43.91865507 -26.39269969 44.94032614 -29 46 C-28.34508665 37.87907449 -26.83735892 30.25941925 -23 23 C-20.74963714 23.30987617 -18.49972106 23.62299818 -16.25 23.9375 C-14.37054688 24.19853516 -14.37054688 24.19853516 -12.453125 24.46484375 C-9.90017407 24.86049338 -7.4813709 25.30446422 -5 26 C-4.97421875 25.21238281 -4.9484375 24.42476562 -4.921875 23.61328125 C-4.48518832 15.22691205 -2.78323081 7.90955361 0 0 Z " fill="#C06D1A" transform="translate(64,38)"/>
<path d="M0 0 C1.49039186 16.29495097 -4.06062206 32.30880814 -12.02978516 46.296875 C-12.89600766 47.8174508 -13.72235324 49.36058433 -14.54296875 50.90625 C-24.77950074 68.80044473 -43.60723647 83.09581094 -63.3828125 88.671875 C-65.2458997 89.15225288 -67.12179559 89.58262124 -69 90 C-65.67986853 83.02772391 -59.74877851 81.11416455 -53 78 C-45.93973149 74.49819748 -39.96359834 70.14721259 -34 65 C-33.38253906 64.46761719 -32.76507813 63.93523437 -32.12890625 63.38671875 C-15.90762367 48.28931256 -7.76345588 27.10997354 -5.52734375 5.53125 C-5 2 -5 2 -3 0.5 C-1 0 -1 0 0 0 Z " fill="#174F21" transform="translate(194,93)"/>
<path d="M0 0 C3.87294449 1.15141593 7.40877243 3.16262776 11 5 C10.67 5.66 10.34 6.32 10 7 C8.22382334 7.46038024 6.42711948 7.84236401 4.625 8.1875 C-9.92139476 11.65174804 -21.08935022 22.57144855 -29.30859375 34.6171875 C-30.75088714 36.64905579 -32.17636864 38.31579 -34 40 C-34.125 34.25 -34.125 34.25 -33 32 C-36.3 32 -39.6 32 -43 32 C-34.62678039 17.50497028 -21.53095955 8.72109957 -6.08203125 3.15625 C-2.89385357 2.09324831 -2.89385357 2.09324831 0 0 Z " fill="#53A431" transform="translate(160,87)"/>
<path d="M0 0 C0.33 0.99 0.66 1.98 1 3 C0.01 3.33 -0.98 3.66 -2 4 C-2 4.66 -2 5.32 -2 6 C-0.68 5.67 0.64 5.34 2 5 C2 4.34 2 3.68 2 3 C2.99 3.33 3.98 3.66 5 4 C4.12988281 4.90878906 4.12988281 4.90878906 3.2421875 5.8359375 C-7.29890732 17.14239234 -15.47513402 31.24538432 -16.31640625 47.109375 C-16.35830078 47.86347656 -16.40019531 48.61757812 -16.44335938 49.39453125 C-16.50233398 50.56048828 -16.50233398 50.56048828 -16.5625 51.75 C-16.60568359 52.54277344 -16.64886719 53.33554688 -16.69335938 54.15234375 C-16.79902991 56.10137815 -16.89997966 58.05066748 -17 60 C-17.79019531 59.2059375 -18.58039062 58.411875 -19.39453125 57.59375 C-20.79585987 56.19872421 -22.20962798 54.81366402 -23.6875 53.5 C-25.44720969 51.48890321 -26.07039795 49.51539379 -27 47 C-27.33386719 46.33742187 -27.66773438 45.67484375 -28.01171875 44.9921875 C-30.81225046 39.35181837 -31.39914122 35.28647426 -31 29 C-28.77442119 30.05109472 -27.1566607 30.83707287 -25.4375 32.625 C-23.97021721 34.34561132 -23.97021721 34.34561132 -21 34 C-20.66174194 33.23091309 -20.66174194 33.23091309 -20.31665039 32.44628906 C-14.99915819 20.47958704 -9.61857183 9.1951127 0 0 Z " fill="#EFF4ED" transform="translate(40,31)"/>
<path d="M0 0 C3.96 1.32 7.92 2.64 12 4 C12 4.33 12 4.66 12 5 C11.175 5.12375 10.35 5.2475 9.5 5.375 C-6.00105114 8.14304485 -22.56453567 15.67105222 -32.24414062 28.67089844 C-33.1960956 30.09216222 -34.10299367 31.54343257 -35 33 C-35.61875 32.13375 -35.61875 32.13375 -36.25 31.25 C-38.88955125 27.85629125 -40.86373451 25.37875516 -45 24 C-44.154375 23.46375 -43.30875 22.9275 -42.4375 22.375 C-40.09012624 20.82454066 -38.05634545 19.16506981 -36 17.25 C-26.60727331 9.14928594 -16.13808929 4.99902838 -4.32421875 1.91015625 C-1.1788464 1.34393828 -1.1788464 1.34393828 0 0 Z " fill="#54A532" transform="translate(145,81)"/>
<path d="M0 0 C1.734375 1.51953125 1.734375 1.51953125 3 3 C2.27296875 3.21914062 1.5459375 3.43828125 0.796875 3.6640625 C-15.34046181 8.75353026 -31.00473624 16.98560064 -40 32 C-40.68245825 33.32531995 -41.35348339 34.65678055 -42 36 C-42.99 36 -43.98 36 -45 36 C-48.07064532 29.61305773 -48.07064532 29.61305773 -47.76953125 27 C-43.29277009 15.36496593 -28.85350458 8.64401725 -18.359375 3.4453125 C-12.10403496 0.75406155 -6.74726912 -0.56227243 0 0 Z " fill="#F5F9F4" transform="translate(158,86)"/>
<path d="M0 0 C3.67417074 1.99584584 6.41705348 4.20464876 7.734375 8.26171875 C8.37461069 12.8729401 8.16488501 14.67022998 6 19 C-0.6 19 -7.2 19 -14 19 C-16.04174328 14.91651343 -16.52969254 13.41410449 -16 9 C-12.67633292 2.48049919 -7.50958743 -1.37931198 0 0 Z " fill="#FDFCF9" transform="translate(106,49)"/>
<path d="M0 0 C5.42042665 0.71507257 10.438877 2.27395132 15.625 3.9375 C16.470625 4.20240234 17.31625 4.46730469 18.1875 4.74023438 C26.14690981 7.26992062 29.48274633 9.04904274 33.73828125 16.4453125 C35.14669889 19.29703118 35.83261044 21.81959845 36 25 C23.05435657 23.06057776 10.05252604 13.6492826 2.3125 3.4375 C1.5266601 2.30190601 0.74917271 1.16011133 0 0 Z " fill="#317729" transform="translate(49,134)"/>
<path d="M0 0 C2.96013476 0.44850527 5.91772909 0.90829867 8.875 1.375 C10.13763672 1.56449219 10.13763672 1.56449219 11.42578125 1.7578125 C12.63427734 1.95117188 12.63427734 1.95117188 13.8671875 2.1484375 C14.98262939 2.32125244 14.98262939 2.32125244 16.12060547 2.49755859 C18 3 18 3 20 5 C19.43796875 4.9071875 18.8759375 4.814375 18.296875 4.71875 C4.35687205 3.52144913 -10.08553176 11.36997373 -20.68676758 19.84912109 C-23.87211154 22.38525783 -24.73515951 23 -29 23 C-31.75 21.5 -31.75 21.5 -34 20 C-30.72542677 11.62148302 -18.6976694 7.64983714 -11.0390625 4.22265625 C-7.37589616 2.74891452 -3.869652 1.75875529 0 1 C0 0.67 0 0.34 0 0 Z " fill="#57A536" transform="translate(123,76)"/>
<path d="M0 0 C1.37924438 3.31605564 2.69512147 6.65404458 4 10 C4.3815625 10.92683594 4.763125 11.85367188 5.15625 12.80859375 C8.92764317 22.73543934 8.95235324 32.61919499 7 43 C4 41 4 41 3.3125 38.375 C3.209375 37.59125 3.10625 36.8075 3 36 C2.01 35.67 1.02 35.34 0 35 C-0.08636719 34.15179688 -0.17273438 33.30359375 -0.26171875 32.4296875 C-1.62006292 21.08938294 -4.7308696 11.20029908 -10 1 C-6.61981469 -0.04005702 -3.5219721 -0.08004482 0 0 Z " fill="#78BD3A" transform="translate(173,52)"/>
<path d="M0 0 C1.23556641 0.01740234 1.23556641 0.01740234 2.49609375 0.03515625 C3.32238281 0.04417969 4.14867187 0.05320313 5 0.0625 C5.63808594 0.07410156 6.27617188 0.08570313 6.93359375 0.09765625 C6.29775669 4.0055537 5.09323494 7.29407695 3.49609375 10.91015625 C0.24043989 18.58486766 -1.33671923 25.80226701 -2.06640625 34.09765625 C-4.04640625 34.75765625 -6.02640625 35.41765625 -8.06640625 36.09765625 C-8.06640625 37.41765625 -8.06640625 38.73765625 -8.06640625 40.09765625 C-7.40640625 40.42765625 -6.74640625 40.75765625 -6.06640625 41.09765625 C-7.55140625 41.59265625 -7.55140625 41.59265625 -9.06640625 42.09765625 C-13.10506546 29.98167863 -9.76983564 14.92723898 -4.4921875 3.76953125 C-2.54484611 0.12026683 -2.54484611 0.12026683 0 0 Z " fill="#77BD39" transform="translate(33.06640625,52.90234375)"/>
<path d="M0 0 C5.18994212 2.11650568 7.36895884 6.25129156 10 11 C11.1875 14.25 11.1875 14.25 11 17 C8.75 19.625 8.75 19.625 6 22 C3.98187649 24.45057854 3.0143456 25.95696319 2 29 C1.34 29 0.68 29 0 29 C-0.20625 28.319375 -0.4125 27.63875 -0.625 26.9375 C-1.94221713 24.12344523 -3.05215777 22.84761418 -5.1875 20.6875 C-7.70855661 17.81250194 -7.98611014 17.17223425 -8.3125 13.125 C-7.21326557 7.83623058 -3.49568195 3.94291018 0 0 Z " fill="#EAB01E" transform="translate(101,107)"/>
<path d="M0 0 C0.639375 0.66 1.27875 1.32 1.9375 2 C4.36960706 4.43903614 6.91635201 6.72259409 9.5 9 C22.62970879 20.64907828 22.62970879 20.64907828 23.25 27.9375 C23.1675 28.618125 23.085 29.29875 23 30 C14.16984536 27.90864758 6.09475849 21.4105578 1 14 C-0.04976964 10.85069107 -0.10131595 8.61185544 -0.0625 5.3125 C-0.05347656 4.31863281 -0.04445313 3.32476562 -0.03515625 2.30078125 C-0.02355469 1.54152344 -0.01195313 0.78226562 0 0 Z " fill="#6DB039" transform="translate(78,127)"/>
<path d="M0 0 C1.05638672 0.01353516 2.11277344 0.02707031 3.20117188 0.04101562 C5.78049809 0.0760291 8.35871494 0.12513325 10.9375 0.1875 C10.9375 0.5175 10.9375 0.8475 10.9375 1.1875 C9.1121875 1.2803125 9.1121875 1.2803125 7.25 1.375 C-3.42522678 2.61125474 -12.47127892 7.71960184 -21.28515625 13.515625 C-23.69066832 14.96366884 -25.29352585 15.92182018 -28.0625 16.1875 C-31.3125 14.75 -31.3125 14.75 -34.0625 13.1875 C-32.74388825 9.23166474 -31.13421298 8.74394081 -27.5625 6.6875 C-26.5621875 6.0996875 -25.561875 5.511875 -24.53125 4.90625 C-16.18608957 0.7712606 -9.30080102 -0.22885252 0 0 Z " fill="#52A130" transform="translate(109.0625,74.8125)"/>
<path d="M0 0 C10.71147064 3.78168372 19.9017407 12.2673506 28 20 C27.34 20.66 26.68 21.32 26 22 C25.154375 21.73445313 24.30875 21.46890625 23.4375 21.1953125 C21.7359375 20.66550781 21.7359375 20.66550781 20 20.125 C18.22109375 19.55458984 18.22109375 19.55458984 16.40625 18.97265625 C13.64702403 18.18475801 11.32304871 17.81766017 8.5 17.5625 C4.03356092 15.56855398 3.77438657 14.01818183 2 9.5625 C0.85055013 6.17842884 0 3.57309804 0 0 Z " fill="#509A30" transform="translate(36,107)"/>
<path d="M0 0 C-1.70237583 7.23509728 -4.44227798 10.89352175 -10.4375 15.375 C-14.61090961 18.50333834 -17.16186338 21.6541033 -20 26 C-20.33 26 -20.66 26 -21 26 C-21.51035887 19.08180195 -21.22412017 13.6949141 -17 8 C-11.65547489 2.24264101 -7.94731042 0 0 0 Z " fill="#70B736" transform="translate(124,122)"/>
<path d="M0 0 C0.99 0 1.98 0 3 0 C2.67 1.32 2.34 2.64 2 4 C4.475 5.485 4.475 5.485 7 7 C7.99 5.68 8.98 4.36 10 3 C10.02701408 5.10409639 10.04640223 7.20829178 10.0625 9.3125 C10.07410156 10.48425781 10.08570313 11.65601563 10.09765625 12.86328125 C10 16 10 16 9 19 C7.96617188 18.835 6.93234375 18.67 5.8671875 18.5 C-0.36113472 17.72043036 -6.61007716 17.93335188 -12.875 18 C-15.30985231 18.02541599 -17.74475524 18.04648071 -20.1796875 18.0625 C-21.24944824 18.07410156 -22.31920898 18.08570312 -23.42138672 18.09765625 C-26 18 -26 18 -28 17 C-28 16.34 -28 15.68 -28 15 C-28.99 15 -29.98 15 -31 15 C-31 14.01 -31 13.02 -31 12 C-29.68 12 -28.36 12 -27 12 C-27 12.66 -27 13.32 -27 14 C-26.01 13.67 -25.02 13.34 -24 13 C-23.67 14.32 -23.34 15.64 -23 17 C-13.1 16.505 -13.1 16.505 -3 16 C-2.67 13.03 -2.34 10.06 -2 7 C-1.55042537 4.35874903 -1.19119055 2.3823811 0 0 Z " fill="#F4C14C" transform="translate(115,51)"/>
<path d="M0 0 C6.02421164 0.30121058 9.74143524 2.98628086 14 7 C18.52640222 12.09356587 19.53143093 16.34656744 19.17578125 23.09375 C19.11777344 23.7228125 19.05976562 24.351875 19 25 C18.34 24.319375 17.68 23.63875 17 22.9375 C14.75278189 20.68389774 12.40618328 18.58262454 10 16.5 C1.61018364 9.22036728 1.61018364 9.22036728 0 6 C-0.039992 4.00039988 -0.04346799 1.99952758 0 0 Z " fill="#71B836" transform="translate(82,122)"/>
<path d="M0 0 C4.37943884 3.65953109 4.40018828 8.59495509 5 14 C5.2312448 18.01138931 5.43657006 22.00024788 5 26 C4.34 26.66 3.68 27.32 3 28 C2.53993654 30.20250992 2.53993654 30.20250992 2.375 32.625 C2.30023438 33.44226563 2.22546875 34.25953125 2.1484375 35.1015625 C2.07496094 36.04128906 2.07496094 36.04128906 2 37 C1.34 37 0.68 37 0 37 C0 34.03 0 31.06 0 28 C-1.32 27.34 -2.64 26.68 -4 26 C-4.50740908 16.47198497 -3.63080055 8.85007633 0 0 Z " fill="#114B1F" transform="translate(139,36)"/>
<path d="M0 0 C0.46592752 7.63666564 -2.83807397 14.23167719 -7.7109375 20.0390625 C-11.48806257 23.50854842 -15.00455815 24.98052207 -20 26 C-19.60179764 16.44314331 -13.36767299 11.14927867 -6.6875 5 C-1.21640268 0 -1.21640268 0 0 0 Z " fill="#70B836" transform="translate(124,130)"/>
<path d="M0 0 C0.66 0.33 1.32 0.66 2 1 C1.34 1.66 0.68 2.32 0 3 C0.99 3.33 1.98 3.66 3 4 C3.6875 6.0625 3.6875 6.0625 4 8 C2.35 7.67 0.7 7.34 -1 7 C-1 7.99 -1 8.98 -1 10 C-0.34 10.33 0.32 10.66 1 11 C-1.31 11 -3.62 11 -6 11 C-5.2236068 14.0745356 -5.2236068 14.0745356 -3 16 C-4.32 16 -5.64 16 -7 16 C-7 17.32 -7 18.64 -7 20 C-5.02 19.34 -3.04 18.68 -1 18 C-1 20.31 -1 22.62 -1 25 C-1.66 25 -2.32 25 -3 25 C-3 24.34 -3 23.68 -3 23 C-4.32 23 -5.64 23 -7 23 C-7 23.99 -7 24.98 -7 26 C-6.01 26 -5.02 26 -4 26 C-4 26.99 -4 27.98 -4 29 C-6.31 29.33 -8.62 29.66 -11 30 C-12.90768316 24.27695053 -13.18578374 17.29679785 -11.12890625 11.578125 C-8.30824978 6.80612914 -4.37953307 3.33197905 0 0 Z " fill="#F2B51E" transform="translate(91,40)"/>
<path d="M0 0 C5.21584164 6.64483936 5.2389623 12.88519852 5.36328125 21.109375 C4.95074831 24.39189514 4.35784195 24.87794225 2 27 C1.42982192 29.04100238 1.42982192 29.04100238 1.3125 31.1875 C1.209375 32.445625 1.10625 33.70375 1 35 C0.67 35 0.34 35 0 35 C-0.1953125 32.98177083 -0.390625 30.96354167 -0.5859375 28.9453125 C-0.86374749 26.77331755 -0.86374749 26.77331755 -3 25 C-6.24843059 16.55408047 -2.74677448 8.04412525 0 0 Z " fill="#25551F" transform="translate(64,38)"/>
<path d="M0 0 C5.42042665 0.71507257 10.438877 2.27395132 15.625 3.9375 C16.470625 4.20240234 17.31625 4.46730469 18.1875 4.74023438 C28.43912678 7.99844068 28.43912678 7.99844068 30.75 12.125 C31.1625 13.07375 31.575 14.0225 32 15 C28.76284606 16.61857697 26.08212244 15.01517605 22.75390625 13.96875 C18.72279606 12.55071408 14.85652908 10.83511167 11 9 C11 8.34 11 7.68 11 7 C10.01 7 9.02 7 8 7 C7.67 7.66 7.34 8.32 7 9 C5.83037314 7.69013727 4.66437056 6.3770374 3.5 5.0625 C2.8503125 4.33160156 2.200625 3.60070312 1.53125 2.84765625 C0 1 0 1 0 0 Z " fill="#3A812B" transform="translate(49,134)"/>
<path d="M0 0 C0.66 0.66 1.32 1.32 2 2 C1.88049897 9.76756705 -1.90231245 15.69833429 -6 22 C-6.598125 23.155 -7.19625 24.31 -7.8125 25.5 C-9.53745688 28.60635388 -11.76233564 30.84906388 -14.25 33.375 C-19.92365533 39.46060391 -22.89123438 46.5265518 -26.14746094 54.07226562 C-27.3374451 56.7630202 -28.65823588 59.38232522 -30 62 C-31.17578125 60.3125 -31.17578125 60.3125 -32 58 C-30.91796875 55.5625 -30.91796875 55.5625 -29.1875 53 C-27.18291057 49.99082227 -25.63887618 47.58434426 -25 44 C-25.556875 44.39832031 -26.11375 44.79664063 -26.6875 45.20703125 C-31.66497307 48.66267556 -36.24104992 51.1152527 -42 53 C-42 52.34 -42 51.68 -42 51 C-40.67548828 50.41605469 -40.67548828 50.41605469 -39.32421875 49.8203125 C-26.56540765 43.96694221 -17.49163251 35.97155345 -10 24 C-9.46632812 23.22140625 -8.93265625 22.4428125 -8.3828125 21.640625 C-3.93185163 14.86453532 -1.91114894 7.80198449 0 0 Z " fill="#D2DCD3" transform="translate(168,106)"/>
<path d="M0 0 C1.32 0.33 2.64 0.66 4 1 C4 1.66 4 2.32 4 3 C5.32 2.67 6.64 2.34 8 2 C8 2.99 8 3.98 8 5 C8.66 5.66 9.32 6.32 10 7 C10 8.32 10 9.64 10 11 C11.65 11.33 13.3 11.66 15 12 C15 12.66 15 13.32 15 14 C13.04350603 14.83764268 11.08474444 15.66999059 9.125 16.5 C8.03445312 16.9640625 6.94390625 17.428125 5.8203125 17.90625 C3 19 3 19 1 19 C0.67 12.73 0.34 6.46 0 0 Z " fill="#EAAE1D" transform="translate(143,45)"/>
<path d="M0 0 C3.15069422 1.36689554 5.00891774 2.85657885 7.1875 5.5 C7.95126953 6.41265625 7.95126953 6.41265625 8.73046875 7.34375 C11.00499519 10.31113218 11.1606982 12.31207241 11.1875 16 C11.20167969 16.886875 11.21585938 17.77375 11.23046875 18.6875 C11 21 11 21 9 23 C2.46238521 16.11278014 -0.2924137 11.37162162 -0.0703125 1.7578125 C-0.04710937 1.17773438 -0.02390625 0.59765625 0 0 Z " fill="#79BE3B" transform="translate(9,60)"/>
<path d="M0 0 C2.00506558 3.00759837 2.99140635 5.60358391 4.1875 9 C10.75301594 26.24644275 23.10661899 40.10158719 39.9453125 47.89453125 C43.26098687 49.35602655 46.61523805 50.70597557 50 52 C50.495 51.01 50.495 51.01 51 50 C50.67 51.32 50.34 52.64 50 54 C31.18032124 49.34610981 16.83383746 37.56450638 6.85742188 21.11621094 C5.70733103 19.15560768 4.59455445 17.17959899 3.5 15.1875 C3.16129883 14.57753174 2.82259766 13.96756348 2.47363281 13.33911133 C0.32830321 9.25020204 -0.67664521 5.6020316 -1 1 C-0.67 0.67 -0.34 0.34 0 0 Z " fill="#D1DCD2" transform="translate(35,107)"/>
<path d="M0 0 C6.14783531 -0.64039951 10.16959648 -0.0206877 15.26953125 3.5625 C17.58064756 5.4823438 19.36586896 7.48071464 21 10 C21 10.66 21 11.32 21 12 C14.64896327 12.45364548 10.27846683 11.69155037 5 8 C2.9928454 6.0949041 1.59756631 4.29650157 0 2 C0 1.34 0 0.68 0 0 Z " fill="#79BE3B" transform="translate(1,80)"/>
<path d="M0 0 C0.50118567 6.76600653 -0.71513992 12.02176589 -4 18 C-6.625 20.625 -6.625 20.625 -9 22 C-9.66 22 -10.32 22 -11 22 C-11.58865427 16.06985329 -11.90211714 11.41613528 -8.1875 6.5 C-7.15993826 5.30244656 -6.09829474 4.13303399 -5 3 C-4.48050781 2.4328125 -3.96101562 1.865625 -3.42578125 1.28125 C-2 0 -2 0 0 0 Z " fill="#77BD38" transform="translate(195,61)"/>
<path d="M0 0 C1.8871875 0.0309375 1.8871875 0.0309375 3.8125 0.0625 C2.50364898 5.62511684 -1.57635971 8.1771132 -6.1875 11.0625 C-9.66075181 12.2202506 -12.54817448 12.13116652 -16.1875 12.0625 C-16.1875 9.9375 -16.1875 9.9375 -15.1875 7.0625 C-10.63401717 2.79488604 -6.37398527 -0.10449156 0 0 Z " fill="#79BE3B" transform="translate(199.1875,79.9375)"/>
<path d="M0 0 C-0.33 0.99 -0.66 1.98 -1 3 C0.32 3.66 1.64 4.32 3 5 C1.7260411 7.03833424 0.38938077 9.03852126 -1 11 C-1.66 11 -2.32 11 -3 11 C-3.66 12.65 -4.32 14.3 -5 16 C-8.3 15.67 -11.6 15.34 -15 15 C-12.10712459 8.67853152 -8.1113549 0 0 0 Z " fill="#E3C077" transform="translate(46,38)"/>
<path d="M0 0 C0.12375 0.61875 0.2475 1.2375 0.375 1.875 C0.87197356 4.19120832 0.87197356 4.19120832 3 6 C3 7.32 3 8.64 3 10 C3.99 9.67 4.98 9.34 6 9 C6 11.97 6 14.94 6 18 C4.35 17.67 2.7 17.34 1 17 C0.67 15.35 0.34 13.7 0 12 C-1.65 11.67 -3.3 11.34 -5 11 C-5.875 8.875 -5.875 8.875 -6 6 C-4.2531134 3.70485976 -2.19996058 1.85561893 0 0 Z " fill="#DBA31C" transform="translate(54,43)"/>
<path d="M0 0 C0.33 1.32 0.66 2.64 1 4 C2.65 4 4.3 4 6 4 C6.33 3.34 6.66 2.68 7 2 C7 2.99 7 3.98 7 5 C8.32 5 9.64 5 11 5 C11.33 4.01 11.66 3.02 12 2 C13 5 13 5 13 7 C13.66 7.33 14.32 7.66 15 8 C15 7.34 15 6.68 15 6 C15.66 6 16.32 6 17 6 C17.33 6.99 17.66 7.98 18 9 C17.34 9 16.68 9 16 9 C15.34 10.32 14.68 11.64 14 13 C13.0925 12.154375 12.185 11.30875 11.25 10.4375 C6.74468654 7.13050703 2.69909014 7.90699062 -2.62109375 8.60546875 C-3.79865234 8.80076172 -3.79865234 8.80076172 -5 9 C-4.34 7.68 -3.68 6.36 -3 5 C-2.01 5 -1.02 5 0 5 C-0.2784375 4.0409375 -0.2784375 4.0409375 -0.5625 3.0625 C-0.706875 2.381875 -0.85125 1.70125 -1 1 C-0.67 0.67 -0.34 0.34 0 0 Z " fill="#F2B41A" transform="translate(99,42)"/>
<path d="M0 0 C2.31 0.66 4.62 1.32 7 2 C7 2.66 7 3.32 7 4 C7.66 4.33 8.32 4.66 9 5 C8.071875 6.11375 8.071875 6.11375 7.125 7.25 C5.39562719 9.48801188 4.13893339 11.43739987 3 14 C2.01 14 1.02 14 0 14 C-3.05397727 7.64772727 -3.05397727 7.64772727 -2.8125 4.75 C-2 3 -2 3 0 0 Z " fill="#EAEEE9" transform="translate(113,108)"/>
<path d="M0 0 C0.99 0 1.98 0 3 0 C3.33 1.32 3.66 2.64 4 4 C2.68 4.33 1.36 4.66 0 5 C0 3.35 0 1.7 0 0 Z M-5 3 C-2.525 3.99 -2.525 3.99 0 5 C-0.56546674 8.95826719 -1.63546332 11.759709 -4 15 C-6.64417414 16.73523928 -7.78465943 17 -11 17 C-11 15.68 -11 14.36 -11 13 C-10.34 12.67 -9.68 12.34 -9 12 C-9.33 10.68 -9.66 9.36 -10 8 C-8.35 7.67 -6.7 7.34 -5 7 C-5.33 6.01 -5.66 5.02 -6 4 C-5.67 3.67 -5.34 3.34 -5 3 Z " fill="#F7DA9A" transform="translate(95,43)"/>
<path d="M0 0 C4.37068522 1.52274344 8.02802341 3.82591582 11.8125 6.4375 C12.7087207 7.03014648 12.7087207 7.03014648 13.62304688 7.63476562 C15.14004069 8.67672366 16.57786445 9.83189159 18 11 C18 11.99 18 12.98 18 14 C17.18015625 13.6390625 16.3603125 13.278125 15.515625 12.90625 C14.43796875 12.4421875 13.3603125 11.978125 12.25 11.5 C11.18265625 11.0359375 10.1153125 10.571875 9.015625 10.09375 C5.90792284 8.77269283 5.90792284 8.77269283 2 9 C1.34 6.03 0.68 3.06 0 0 Z " fill="#5CA638" transform="translate(36,107)"/>
<path d="M0 0 C0.33 1.32 0.66 2.64 1 4 C2.175625 3.9071875 2.175625 3.9071875 3.375 3.8125 C4.674375 3.9053125 4.674375 3.9053125 6 4 C6.99 5.485 6.99 5.485 8 7 C6.35 9.31 4.7 11.62 3 14 C2.5875 13.4225 2.175 12.845 1.75 12.25 C-0.88955125 8.85629125 -2.86373451 6.37875516 -7 5 C-6.030625 4.360625 -5.06125 3.72125 -4.0625 3.0625 C-1.23963731 1.3034741 -1.23963731 1.3034741 0 0 Z " fill="#4A942D" transform="translate(107,100)"/>
<path d="M0 0 C-1.32103998 1.0161846 -2.65824027 2.01133494 -4 3 C-4.928125 3.7425 -5.85625 4.485 -6.8125 5.25 C-10.79893859 7.43863295 -12.67713385 7.22345269 -17 6 C-18.9375 4.5625 -18.9375 4.5625 -20 3 C-20 2.34 -20 1.68 -20 1 C-18.86111328 1.01740234 -18.86111328 1.01740234 -17.69921875 1.03515625 C-16.70535156 1.04417969 -15.71148437 1.05320312 -14.6875 1.0625 C-13.70136719 1.07410156 -12.71523437 1.08570312 -11.69921875 1.09765625 C-7.66530082 0.95171132 -4.14653812 -0.09214529 0 0 Z " fill="#4E9E2C" transform="translate(80,77)"/>
<path d="M0 0 C0.33 0 0.66 0 1 0 C1.05386629 2.12472576 1.09273071 4.24983652 1.125 6.375 C1.14820312 7.55835938 1.17140625 8.74171875 1.1953125 9.9609375 C1 13 1 13 -1 15 C-1.45811675 16.97235333 -1.45811675 16.97235333 -1.625 19.125 C-1.74875 20.40375 -1.8725 21.6825 -2 23 C-2.33 23 -2.66 23 -3 23 C-3.1953125 20.98177083 -3.390625 18.96354167 -3.5859375 16.9453125 C-3.86374749 14.77331755 -3.86374749 14.77331755 -6 13 C-6.4140625 10.8359375 -6.4140625 10.8359375 -6.625 8.375 C-6.69976562 7.55773438 -6.77453125 6.74046875 -6.8515625 5.8984375 C-6.90054688 5.27195312 -6.94953125 4.64546875 -7 4 C-6.01 4.33 -5.02 4.66 -4 5 C-4 6.32 -4 7.64 -4 9 C-3.01 8.67 -2.02 8.34 -1 8 C-0.67 5.36 -0.34 2.72 0 0 Z " fill="#0D491D" transform="translate(67,50)"/>
<path d="M0 0 C3.69909473 0.60541175 6.71354402 1.65257655 10.08203125 3.28515625 C11.01337891 3.73310547 11.94472656 4.18105469 12.90429688 4.64257812 C13.86400391 5.11115234 14.82371094 5.57972656 15.8125 6.0625 C16.79154297 6.53494141 17.77058594 7.00738281 18.77929688 7.49414062 C21.18870167 8.65770684 23.59544007 9.82646296 26 11 C25.34 12.32 24.68 13.64 24 15 C23.649375 14.5875 23.29875 14.175 22.9375 13.75 C17.42255825 8.76876229 10.60213859 6.64538983 3.6953125 4.24609375 C2.80585938 3.83488281 1.91640625 3.42367187 1 3 C0.67 2.01 0.34 1.02 0 0 Z " fill="#154F1E" transform="translate(148,80)"/>
<path d="M0 0 C-0.77863403 0.2945105 -0.77863403 0.2945105 -1.57299805 0.5949707 C-3.94640322 1.49588513 -6.31694217 2.40412125 -8.6875 3.3125 C-9.91243164 3.7755957 -9.91243164 3.7755957 -11.16210938 4.24804688 C-15.37782222 5.86947489 -19.14866811 7.61650785 -23 10 C-24.2375 10.33 -25.475 10.66 -26.75 11 C-28.35875 11.495 -28.35875 11.495 -30 12 C-30.33 12.99 -30.66 13.98 -31 15 C-31.33 13.68 -31.66 12.36 -32 11 C-7.0718693 -2.03348965 -7.0718693 -2.03348965 0 0 Z " fill="#2E612F" transform="translate(62,80)"/>
<path d="M0 0 C1.98 0.66 3.96 1.32 6 2 C6.125 4.375 6.125 4.375 6 7 C5.34 7.66 4.68 8.32 4 9 C1.0625 8.625 1.0625 8.625 -2 8 C-2.99 8 -3.98 8 -5 8 C-4.45773019 4.20411134 -2.79872437 2.52788007 0 0 Z " fill="#DBA21B" transform="translate(131,30)"/>
<path d="M0 0 C0 0.33 0 0.66 0 1 C-1.98 1.33 -3.96 1.66 -6 2 C-6 2.33 -6 2.66 -6 3 C-8.49840454 3.50938345 -10.99823388 4.00763114 -13.5 4.5 C-14.19609375 4.64308594 -14.8921875 4.78617187 -15.609375 4.93359375 C-20.49087203 5.88277373 -25.02718299 6.13440046 -30 6 C-27.05417654 3.05417654 -23.45109192 2.7311361 -19.5 1.875 C-18.68934082 1.69614258 -17.87868164 1.51728516 -17.04345703 1.33300781 C-11.25236411 0.11712148 -5.92822595 -0.38246619 0 0 Z " fill="#114C19" transform="translate(93,73)"/>
<path d="M0 0 C1.32 0.33 2.64 0.66 4 1 C4 1.66 4 2.32 4 3 C5.32 2.67 6.64 2.34 8 2 C8 2.99 8 3.98 8 5 C8.33 5.33 8.66 5.66 9 6 C9.04063832 7.66617115 9.042721 9.33388095 9 11 C8.34 10.01 7.68 9.02 7 8 C4.94074861 7.27617533 4.94074861 7.27617533 3 7 C3 8.65 3 10.3 3 12 C4.32 12.33 5.64 12.66 7 13 C5.35 13 3.7 13 2 13 C1.67 13.66 1.34 14.32 1 15 C0.67 10.05 0.34 5.1 0 0 Z " fill="#D9A01B" transform="translate(143,45)"/>
<path d="M0 0 C0.99 0.33 1.98 0.66 3 1 C4.33106622 1.34227417 5.66400079 1.67751743 7 2 C6.75 4.375 6.75 4.375 6 7 C3.9375 8.3125 3.9375 8.3125 2 9 C0.02 7.68 -1.96 6.36 -4 5 C-2.25 1.125 -2.25 1.125 0 0 Z " fill="#519C2F" transform="translate(93,91)"/>
<path d="M0 0 C2 2 2 2 2.1953125 3.9453125 C2.13020833 5.96354167 2.06510417 7.98177083 2 10 C1.67 10 1.34 10 1 10 C0.67 8.35 0.34 6.7 0 5 C-2.29224977 7.12437172 -4.58369884 9.24960519 -6.875 11.375 C-7.52597656 11.97828125 -8.17695312 12.5815625 -8.84765625 13.203125 C-9.47285156 13.78320312 -10.09804687 14.36328125 -10.7421875 14.9609375 C-11.3182373 15.49509277 -11.89428711 16.02924805 -12.48779297 16.57958984 C-13.67891773 17.69840867 -14.84446251 18.84446251 -16 20 C-15.51053057 15.79632134 -14.5423506 14.12397867 -11.25 11.5 C-10.53070313 10.90703125 -9.81140625 10.3140625 -9.0703125 9.703125 C-8.38710937 9.14109375 -7.70390625 8.5790625 -7 8 C-4.26730254 5.38611548 -2.09612399 3.14418598 0 0 Z " fill="#1B5C22" transform="translate(123,126)"/>
<path d="M0 0 C2.57161458 0.03255208 5.14322917 0.06510417 7.71484375 0.09765625 C7.38484375 5.70765625 7.05484375 11.31765625 6.71484375 17.09765625 C6.38484375 17.09765625 6.05484375 17.09765625 5.71484375 17.09765625 C5.35278911 15.14076588 5.00042954 13.18207957 4.65234375 11.22265625 C4.45511719 10.13210937 4.25789063 9.0415625 4.0546875 7.91796875 C3.71484375 5.09765625 3.71484375 5.09765625 4.71484375 3.09765625 C2.40484375 3.42765625 0.09484375 3.75765625 -2.28515625 4.09765625 C-2.61515625 3.10765625 -2.94515625 2.11765625 -3.28515625 1.09765625 C-2.28515625 0.09765625 -2.28515625 0.09765625 0 0 Z " fill="#2F6C2F" transform="translate(119.28515625,118.90234375)"/>
<path d="M0 0 C1.32 0 2.64 0 4 0 C4.75 2.75 4.75 2.75 5 6 C3.375 8.4375 3.375 8.4375 1 10 C-1.75 9.75 -1.75 9.75 -4 9 C-4 5.08599736 -2.46033213 3.9216444 0 1 C0 0.67 0 0.34 0 0 Z " fill="#E6E9E5" transform="translate(103,94)"/>
<path d="M0 0 C1.32 0 2.64 0 4 0 C4 0.66 4 1.32 4 2 C4.99 1.67 5.98 1.34 7 1 C7.33 2.32 7.66 3.64 8 5 C14.6 5 21.2 5 28 5 C28 5.33 28 5.66 28 6 C24.20834926 6.0289337 20.41672673 6.04677601 16.625 6.0625 C15.54476562 6.07087891 14.46453125 6.07925781 13.3515625 6.08789062 C11.8046875 6.09272461 11.8046875 6.09272461 10.2265625 6.09765625 C9.27346191 6.10289307 8.32036133 6.10812988 7.33837891 6.11352539 C5 6 5 6 3 5 C3 4.34 3 3.68 3 3 C2.01 3 1.02 3 0 3 C0 2.01 0 1.02 0 0 Z " fill="#F6D182" transform="translate(84,63)"/>
<path d="M0 0 C2.31 0.66 4.62 1.32 7 2 C6.67 2.66 6.34 3.32 6 4 C5.01 4 4.02 4 3 4 C3 5.32 3 6.64 3 8 C3.66 8.33 4.32 8.66 5 9 C2 11 2 11 -2 11 C-1.34 7.37 -0.68 3.74 0 0 Z " fill="#F2B315" transform="translate(114,58)"/>
<path d="M0 0 C1.5078125 1.33984375 1.5078125 1.33984375 3 3 C2.875 5.5625 2.875 5.5625 2 8 C1.01 8.66 0.02 9.32 -1 10 C-2.10514766 13.31544299 -2.32107631 16.20410111 -2.5625 19.6875 C-2.64628906 20.86699219 -2.73007813 22.04648437 -2.81640625 23.26171875 C-2.87699219 24.16535156 -2.93757812 25.06898437 -3 26 C-3.33 26 -3.66 26 -4 26 C-4.50740908 16.47198497 -3.63080055 8.85007633 0 0 Z " fill="#435E1D" transform="translate(139,36)"/>
<path d="M0 0 C1.32 1.32 2.64 2.64 4 4 C2.35 5.98 0.7 7.96 -1 10 C-2.32 8.68 -3.64 7.36 -5 6 C-3.35 4.02 -1.7 2.04 0 0 Z " fill="#DDE1DE" transform="translate(159,151)"/>
<path d="M0 0 C4.875 3.625 4.875 3.625 6 7 C5.01 7 4.02 7 3 7 C3 8.32 3 9.64 3 11 C2.34 11 1.68 11 1 11 C1 9.68 1 8.36 1 7 C-0.32 7 -1.64 7 -3 7 C-2.38722388 4.03824877 -1.74627478 2.61941217 0 0 Z " fill="#12481C" transform="translate(47,136)"/>
<path d="M0 0 C0.33 0 0.66 0 1 0 C1 2.97 1 5.94 1 9 C2.65 8.34 4.3 7.68 6 7 C6 10 6 10 3.6875 12.5625 C1 15 1 15 -2 17 C-2 13.7 -2 10.4 -2 7 C-1.67 7 -1.34 7 -1 7 C-0.67 4.69 -0.34 2.38 0 0 Z " fill="#E7F2E1" transform="translate(183,74)"/>
<path d="M0 0 C0.33 0.99 0.66 1.98 1 3 C0.01 3.33 -0.98 3.66 -2 4 C-2 4.66 -2 5.32 -2 6 C-0.68 5.67 0.64 5.34 2 5 C2 4.34 2 3.68 2 3 C2.99 3.33 3.98 3.66 5 4 C3.02 6.31 1.04 8.62 -1 11 C-1.99 10.34 -2.98 9.68 -4 9 C-4.99 9.33 -5.98 9.66 -7 10 C-5.6062718 5.56541027 -3.39417765 3.12621626 0 0 Z " fill="#D9DFDA" transform="translate(40,31)"/>
<path d="M0 0 C4.95 0.99 4.95 0.99 10 2 C10.33 2.99 10.66 3.98 11 5 C7.37 5.33 3.74 5.66 0 6 C0 4.02 0 2.04 0 0 Z " fill="#B8671C" transform="translate(65,66)"/>
<path d="M0 0 C5.4722863 4.50658872 8.31329299 10.51866557 11 17 C11 17.99 11 18.98 11 20 C7.35785992 16.79298285 5.3226043 13.18921926 3.25 8.875 C2.77626953 7.92560547 2.77626953 7.92560547 2.29296875 6.95703125 C0 2.28175731 0 2.28175731 0 0 Z " fill="#BECAC0" transform="translate(57,148)"/>
<path d="M0 0 C1.32 0.66 2.64 1.32 4 2 C3.01 2 2.02 2 1 2 C2.5107678 7.35635855 3.66500895 11.26293875 8 15 C8 15.66 8 16.32 8 17 C5.11562221 15.70700306 3.12780579 14.34058637 1 12 C0.67 13.98 0.34 15.96 0 18 C-0.33 18 -0.66 18 -1 18 C-1.11269443 11.8894576 -0.89604368 6.04829486 0 0 Z " fill="#0D4B1A" transform="translate(80,119)"/>
<path d="M0 0 C1.65 0.33 3.3 0.66 5 1 C4.67 1.99 4.34 2.98 4 4 C4 4.33 4 4.66 4 5 C4 6.32 4 7.64 4 9 C1.625 9.125 1.625 9.125 -1 9 C-1.66 8.34 -2.32 7.68 -3 7 C-3 6.01 -3 5.02 -3 4 C-2.34 4 -1.68 4 -1 4 C-0.67 2.68 -0.34 1.36 0 0 Z " fill="#AC5D16" transform="translate(159,62)"/>
<path d="M0 0 C0.33 0 0.66 0 1 0 C1 2.64 1 5.28 1 8 C-2.63 7.67 -6.26 7.34 -10 7 C-10 6.34 -10 5.68 -10 5 C-6.38026598 3.68373308 -3.90432869 3 0 3 C0 2.01 0 1.02 0 0 Z " fill="#BC7427" transform="translate(138,64)"/>
<path d="M0 0 C-0.67170806 3.8063457 -1.72746564 7.35206816 -3 11 C-3.99 10.01 -4.98 9.02 -6 8 C-6.99 8.33 -7.98 8.66 -9 9 C-7.45665977 5.21180126 -4.44676575 0 0 0 Z " fill="#E3E8E3" transform="translate(138,124)"/>
<path d="M0 0 C0.99 0 1.98 0 3 0 C2.67 1.32 2.34 2.64 2 4 C3.32 4.66 4.64 5.32 6 6 C6 6.99 6 7.98 6 9 C0.25 8.125 0.25 8.125 -2 7 C-1.125 2.25 -1.125 2.25 0 0 Z " fill="#F5D282" transform="translate(115,51)"/>
<path d="M0 0 C0.66 0.33 1.32 0.66 2 1 C1.34 1.66 0.68 2.32 0 3 C1.65 3.33 3.3 3.66 5 4 C4.1875 5.9375 4.1875 5.9375 3 8 C2.01 8.33 1.02 8.66 0 9 C0 8.01 0 7.02 0 6 C-1.65 6 -3.3 6 -5 6 C-5 5.34 -5 4.68 -5 4 C-3.37373596 2.61767557 -1.7074998 1.28062485 0 0 Z " fill="#4A932D" transform="translate(144,137)"/>
<path d="M0 0 C3.057952 1.73559438 5.63379989 3.38472619 8 6 C7.34 7.32 6.68 8.64 6 10 C5.01 10 4.02 10 3 10 C0 3.375 0 3.375 0 0 Z " fill="#DBE1DB" transform="translate(110,112)"/>
<path d="M0 0 C0.66 0 1.32 0 2 0 C1.67 0.99 1.34 1.98 1 3 C2.32 3.66 3.64 4.32 5 5 C3.375 6.625 3.375 6.625 1 8 C-2.25 7.1875 -2.25 7.1875 -5 6 C-3.38405168 3.95880212 -1.7143618 1.95927063 0 0 Z " fill="#CFAA69" transform="translate(44,38)"/>
<path d="M0 0 C0.66 0.33 1.32 0.66 2 1 C1.75 3.375 1.75 3.375 1 6 C-1.56310828 7.7941758 -2.83119306 8 -6 8 C-6 6.68 -6 5.36 -6 4 C-3 1.75 -3 1.75 0 0 Z " fill="#F4C85F" transform="translate(90,52)"/>
<path d="M0 0 C0.66 1.32 1.32 2.64 2 4 C1.34 4 0.68 4 0 4 C-0.33 5.32 -0.66 6.64 -1 8 C-2.32 8 -3.64 8 -5 8 C-5 5 -5 5 -2.5 2.3125 C-1.675 1.549375 -0.85 0.78625 0 0 Z " fill="#DBE0DD" transform="translate(167,158)"/>
<path d="M0 0 C-2.41151557 1.03479213 -4.82794469 2.0529372 -7.25 3.0625 C-8.27287109 3.50432617 -8.27287109 3.50432617 -9.31640625 3.95507812 C-13.01989395 5.48321625 -15.1840347 6.24129373 -19 5 C-6.17056146 -1.8645827 -6.17056146 -1.8645827 0 0 Z " fill="#1C4D21" transform="translate(62,80)"/>
<path d="M0 0 C0.99 0.33 1.98 0.66 3 1 C2 3 1 5 0 7 C0.66 7 1.32 7 2 7 C2.33 6.01 2.66 5.02 3 4 C3.33 5.65 3.66 7.3 4 9 C2.35 8.67 0.7 8.34 -1 8 C-1 7.34 -1 6.68 -1 6 C-1.66 6 -2.32 6 -3 6 C-2.42655063 3.13275314 -2.1385485 2.1385485 0 0 Z " fill="#0E4418" transform="translate(54,144)"/>
<path d="M0 0 C0.268125 0.804375 0.53625 1.60875 0.8125 2.4375 C1.204375 3.283125 1.59625 4.12875 2 5 C2.99 5.33 3.98 5.66 5 6 C1.71023192 7.09658936 0.28696233 6.79953138 -3 6 C-3 5.01 -3 4.02 -3 3 C-3.99 2.67 -4.98 2.34 -6 2 C-2.25 0 -2.25 0 0 0 Z " fill="#5CA43F" transform="translate(90,78)"/>
<path d="M0 0 C6.63157895 6.44736842 6.63157895 6.44736842 9 10 C8.6015625 12.15234375 8.6015625 12.15234375 8 14 C7.60167969 13.45730469 7.20335938 12.91460937 6.79296875 12.35546875 C6.26316406 11.64003906 5.73335938 10.92460937 5.1875 10.1875 C4.66542969 9.47980469 4.14335938 8.77210938 3.60546875 8.04296875 C2.16871123 6.21468607 0.68184237 4.60103312 -1 3 C-0.67 2.01 -0.34 1.02 0 0 Z " fill="#2A571F" transform="translate(92,122)"/>
<path d="M0 0 C4.38889325 0.66498383 7.9811485 2.18757677 12 4 C12 4.99 12 5.98 12 7 C7.76570244 5.68938409 3.92592596 4.05643741 0 2 C0 1.34 0 0.68 0 0 Z " fill="#22572C" transform="translate(148,80)"/>
<path d="M0 0 C1.32 0.33 2.64 0.66 4 1 C3.01 1 2.02 1 1 1 C1 1.99 1 2.98 1 4 C1.99 4 2.98 4 4 4 C4 4.99 4 5.98 4 7 C1.69 7.33 -0.62 7.66 -3 8 C-2.67 6.68 -2.34 5.36 -2 4 C-1.34 4 -0.68 4 0 4 C0 2.68 0 1.36 0 0 Z " fill="#F2BA39" transform="translate(83,62)"/>
<path d="M0 0 C0.65355469 0.58007812 0.65355469 0.58007812 1.3203125 1.171875 C5.05744652 4.43984501 8.8076016 7.34140589 13 10 C12.67 10.66 12.34 11.32 12 12 C7.15265392 9.23513027 3.10698638 6.78993734 0 2 C0 1.34 0 0.68 0 0 Z " fill="#245928" transform="translate(82,144)"/>
<path d="M0 0 C1.32 0.33 2.64 0.66 4 1 C4.33 1.99 4.66 2.98 5 4 C4.34 4.66 3.68 5.32 3 6 C2.53993654 8.20250992 2.53993654 8.20250992 2.375 10.625 C2.30023438 11.44226562 2.22546875 12.25953125 2.1484375 13.1015625 C2.09945312 13.72804688 2.05046875 14.35453125 2 15 C1.67 15 1.34 15 1 15 C0.67 10.05 0.34 5.1 0 0 Z " fill="#B8941D" transform="translate(143,45)"/>
<path d="M0 0 C0.66 0.66 1.32 1.32 2 2 C1.828125 4.3125 1.828125 4.3125 1.25 7 C0.97929687 8.3303125 0.97929687 8.3303125 0.703125 9.6875 C0 12 0 12 -2 14 C-3.21065165 10.36804504 -2.62784815 8.93468371 -1.5625 5.3125 C-1.27503906 4.31863281 -0.98757812 3.32476562 -0.69140625 2.30078125 C-0.46324219 1.54152344 -0.23507813 0.78226562 0 0 Z " fill="#B5CBB2" transform="translate(168,106)"/>
<path d="M0 0 C0 0.33 0 0.66 0 1 C-1.98 1.33 -3.96 1.66 -6 2 C-6 2.33 -6 2.66 -6 3 C-9.3125 3.6875 -9.3125 3.6875 -13 4 C-14.9375 2.5625 -14.9375 2.5625 -16 1 C-10.63904667 -0.12862175 -5.44693314 -0.09688221 0 0 Z " fill="#33633B" transform="translate(93,73)"/>
<path d="M0 0 C-0.1875 1.875 -0.1875 1.875 -1 4 C-3.5625 5.25 -3.5625 5.25 -6 6 C-6.66 4.68 -7.32 3.36 -8 2 C-5.09399739 0.74335022 -3.20395416 0 0 0 Z " fill="#B06116" transform="translate(159,59)"/>
<path d="M0 0 C1.65 0 3.3 0 5 0 C5 1.32 5 2.64 5 4 C3.02 4.66 1.04 5.32 -1 6 C-0.67 4.02 -0.34 2.04 0 0 Z " fill="#EFB21E" transform="translate(145,58)"/>
<path d="M0 0 C0.99 0.33 1.98 0.66 3 1 C2.67 1.66 2.34 2.32 2 3 C2.99 3.33 3.98 3.66 5 4 C0.05 5.485 0.05 5.485 -5 7 C-1.125 1.125 -1.125 1.125 0 0 Z " fill="#154B1C" transform="translate(130,176)"/>
<path d="M0 0 C1.32 0 2.64 0 4 0 C3.75 1.875 3.75 1.875 3 4 C0.9375 5.25 0.9375 5.25 -1 6 C-1.66 4.68 -2.32 3.36 -3 2 C-2.01 2 -1.02 2 0 2 C0 1.34 0 0.68 0 0 Z " fill="#489A23" transform="translate(96,94)"/>
<path d="M0 0 C3.33135891 0.59699131 5.21275667 1.72012281 7.75 3.9375 C8.36359375 4.46214844 8.9771875 4.98679688 9.609375 5.52734375 C11 7 11 7 11 9 C8.03469503 7.64199529 5.70868729 6.07571737 3.25 3.9375 C2.63640625 3.41027344 2.0228125 2.88304687 1.390625 2.33984375 C0.93171875 1.89769531 0.4728125 1.45554688 0 1 C0 0.67 0 0.34 0 0 Z " fill="#C5CFC6" transform="translate(52,141)"/>
<path d="M0 0 C2.89932357 2.39509338 3.50168276 4.31245243 4 8 C5.98 7.67 7.96 7.34 10 7 C7.31158141 9.25245881 5.35358125 10.88213958 2 12 C2.04125 11.13375 2.0825 10.2675 2.125 9.375 C1.99542279 5.87641532 1.23980344 3.25448403 0 0 Z " fill="#0F4818" transform="translate(109,114)"/>
<path d="M0 0 C0.99 0 1.98 0 3 0 C3 0.99 3 1.98 3 3 C4.65 3 6.3 3 8 3 C7.01 4.485 7.01 4.485 6 6 C5.01 6 4.02 6 3 6 C2.67 5.34 2.34 4.68 2 4 C0.68 4 -0.64 4 -2 4 C-1.34 2.68 -0.68 1.36 0 0 Z " fill="#4E9730" transform="translate(84,81)"/>
<path d="M0 0 C0.66 0 1.32 0 2 0 C2.66 0.99 3.32 1.98 4 3 C4.66 3 5.32 3 6 3 C6 3.99 6 4.98 6 6 C1.545 5.01 1.545 5.01 -3 4 C-1.625 2 -1.625 2 0 0 Z " fill="#E1A71C" transform="translate(68,62)"/>
<path d="M0 0 C0.66 0.66 1.32 1.32 2 2 C1.8125 4 1.8125 4 1 6 C0.01 6.66 -0.98 7.32 -2 8 C-2.66 7.67 -3.32 7.34 -4 7 C-2.92598892 4.08482708 -2.22189824 2.22189824 0 0 Z " fill="#F1EFE8" transform="translate(49,42)"/>
<path d="M0 0 C2 2 2 2 2.1953125 3.9453125 C2.13020833 5.96354167 2.06510417 7.98177083 2 10 C1.67 10 1.34 10 1 10 C0.67 8.35 0.34 6.7 0 5 C-1.32 6.32 -2.64 7.64 -4 9 C-4.66 8.67 -5.32 8.34 -6 8 C-4.02 5.36 -2.04 2.72 0 0 Z " fill="#094618" transform="translate(123,126)"/>
<path d="M0 0 C0.66 0 1.32 0 2 0 C0.62313063 2.9655648 -1.04351066 5.39134755 -3 8 C-3.69580267 9.31836295 -4.37224433 10.64791086 -5 12 C-5.67578125 10.265625 -5.67578125 10.265625 -6 8 C-4.85546875 5.859375 -4.85546875 5.859375 -3.1875 3.75 C-2.37345703 2.69039063 -2.37345703 2.69039063 -1.54296875 1.609375 C-1.03378906 1.07828125 -0.52460937 0.5471875 0 0 Z " fill="#295A20" transform="translate(109,125)"/>
<path d="M0 0 C0.66 0.33 1.32 0.66 2 1 C1.01 1.8971875 1.01 1.8971875 0 2.8125 C-2.3373846 4.87501834 -2.3373846 4.87501834 -2 8 C-3.65 7.67 -5.3 7.34 -7 7 C-5.66667905 3.00003714 -3.5042173 2.16217663 0 0 Z " fill="#5AA839" transform="translate(82,81)"/>
<path d="M0 0 C1.65 0 3.3 0 5 0 C4.67 1.65 4.34 3.3 4 5 C2.02 5.66 0.04 6.32 -2 7 C-1.67 6.030625 -1.34 5.06125 -1 4.0625 C0.05173363 1.37850426 0.05173363 1.37850426 0 0 Z " fill="#E4E4E4" transform="translate(169,164)"/>
<path d="M0 0 C3.63559661 3.43361902 6.36113346 6.7973607 9 11 C4.70073737 9.40768051 2.64994267 6.60686641 0 3 C0 2.01 0 1.02 0 0 Z " fill="#D9E2D9" transform="translate(45,130)"/>
<path d="M0 0 C1.65 0.33 3.3 0.66 5 1 C5 1.66 5 2.32 5 3 C2.35261084 4.4606285 1.10551666 5 -2 5 C-1.34 3.35 -0.68 1.7 0 0 Z " fill="#DEA41B" transform="translate(153,56)"/>
<path d="M0 0 C0.99 0.33 1.98 0.66 3 1 C1.02 3.31 -0.96 5.62 -3 8 C-3.99 7.34 -4.98 6.68 -6 6 C-4.71034824 4.62437146 -3.37310707 3.29233607 -2 2 C-1.34 2 -0.68 2 0 2 C0 1.34 0 0.68 0 0 Z " fill="#E8E6DE" transform="translate(42,34)"/>
<path d="M0 0 C-1.62339805 1.70884005 -3.29319053 3.37446717 -5 5 C-5.66 5 -6.32 5 -7 5 C-6.67 3.35 -6.34 1.7 -6 0 C-2.25 -1.125 -2.25 -1.125 0 0 Z " fill="#0A4616" transform="translate(169,157)"/>
<path d="M0 0 C0.99 0.66 1.98 1.32 3 2 C2.01 3.32 1.02 4.64 0 6 C-0.99 5.67 -1.98 5.34 -3 5 C-2.625 3.0625 -2.625 3.0625 -2 1 C-1.34 0.67 -0.68 0.34 0 0 Z " fill="#EDB226" transform="translate(134,31)"/>
<path d="M0 0 C1.32 0.99 2.64 1.98 4 3 C1.625 4.5625 1.625 4.5625 -1 6 C-1.66 5.67 -2.32 5.34 -3 5 C-2.01 3.35 -1.02 1.7 0 0 Z " fill="#1A5124" transform="translate(129,151)"/>
<path d="M0 0 C2.97 0.495 2.97 0.495 6 1 C6 2.32 6 3.64 6 5 C4.35 4.67 2.7 4.34 1 4 C0.67 2.68 0.34 1.36 0 0 Z " fill="#458831" transform="translate(60,78)"/>
<path d="M0 0 C-0.99 0.66 -1.98 1.32 -3 2 C-6.1875 1.125 -6.1875 1.125 -9 0 C-9.33 1.32 -9.66 2.64 -10 4 C-10 2.35 -10 0.7 -10 -1 C-6.06329512 -2.31223496 -3.87511856 -1.24296256 0 0 Z " fill="#2B6F26" transform="translate(91,122)"/>
<path d="M0 0 C0.66 0.33 1.32 0.66 2 1 C0.02 3.31 -1.96 5.62 -4 8 C-4.99 7.67 -5.98 7.34 -7 7 C-4.69 4.69 -2.38 2.38 0 0 Z " fill="#DFE5E0" transform="translate(151,140)"/>
<path d="M0 0 C0.66 0 1.32 0 2 0 C1.25 5.75 1.25 5.75 -1 8 C-2.2077558 4.37673261 -1.54311128 3.35853631 0 0 Z " fill="#306433" transform="translate(123,136)"/>
<path d="M0 0 C1.09658936 3.28976808 0.79953138 4.71303767 0 8 C-0.66 8 -1.32 8 -2 8 C-2.33 5.69 -2.66 3.38 -3 1 C-2.01 0.67 -1.02 0.34 0 0 Z " fill="#0B4A1F" transform="translate(103,135)"/>
<path d="M0 0 C2.34058637 2.12780579 3.70700306 4.11562221 5 7 C4.34 7.66 3.68 8.32 3 9 C1.68 6.36 0.36 3.72 -1 1 C-0.67 0.67 -0.34 0.34 0 0 Z " fill="#C2D0C1" transform="translate(41,123)"/>
<path d="M0 0 C0.99 0.33 1.98 0.66 3 1 C2.67 2.32 2.34 3.64 2 5 C0.35 5 -1.3 5 -3 5 C-2.01 3.35 -1.02 1.7 0 0 Z " fill="#5BA73C" transform="translate(120,114)"/>
<path d="M0 0 C2 3 2 3 2 6 C2.66 6.33 3.32 6.66 4 7 C2.35 7.66 0.7 8.32 -1 9 C-0.67 6.03 -0.34 3.06 0 0 Z " fill="#C47731" transform="translate(36,75)"/>
<path d="M0 0 C2.31 0.33 4.62 0.66 7 1 C2.25 5 2.25 5 0 5 C0 3.35 0 1.7 0 0 Z " fill="#C06C18" transform="translate(65,66)"/>
<path d="M0 0 C0.99 0 1.98 0 3 0 C3 1.65 3 3.3 3 5 C1.68 4.67 0.36 4.34 -1 4 C-0.67 2.68 -0.34 1.36 0 0 Z " fill="#F1B31E" transform="translate(51,48)"/>
<path d="M0 0 C2.66735273 2.48952921 4.55746343 4.63408134 6 8 C5.01 8.495 5.01 8.495 4 9 C0 3.375 0 3.375 0 0 Z " fill="#D5DCD7" transform="translate(63,159)"/>
<path d="M0 0 C0.99 0 1.98 0 3 0 C2.67 1.65 2.34 3.3 2 5 C1.01 4.67 0.02 4.34 -1 4 C-0.67 2.68 -0.34 1.36 0 0 Z " fill="#124E20" transform="translate(151,147)"/>
<path d="M0 0 C2.125 0.9375 2.125 0.9375 4 2 C1 4 1 4 -3 4 C-2.67 3.01 -2.34 2.02 -2 1 C-1.34 0.67 -0.68 0.34 0 0 Z " fill="#F3B728" transform="translate(115,65)"/>
</svg>
